<?xml version="1.0" encoding="UTF-8"?>
<svg version="1.1" xmlns="http://www.w3.org/2000/svg" width="376" height="184">
<path d="M0 0 C0.67047742 4.10355363 1.33572962 8.2079374 2 12.3125 C2.19078125 13.47974609 2.3815625 14.64699219 2.578125 15.84960938 C2.75859375 16.96787109 2.9390625 18.08613281 3.125 19.23828125 C3.37636719 20.7857605 3.37636719 20.7857605 3.6328125 22.36450195 C4 25 4 25 4 28 C4.66 28 5.32 28 6 28 C6 28.66 6 29.32 6 30 C9.40117553 28.54235334 11.43833341 26.63929285 14 24 C18.25312204 20.00415566 22.53754707 18.58244321 28 16.9375 C34.09105941 15.12939042 34.09105941 15.12939042 39.75 12.31640625 C42.37479975 10.78071612 44.0091915 10.74364499 47 11 C47.72426916 23.47352438 45.64242157 33.61435361 38.0546875 43.7421875 C32.58699838 49.75040863 24.3931278 55.6557578 16.0625 56.1875 C15.0415625 56.0946875 15.0415625 56.0946875 14 56 C13.505 56.99 13.505 56.99 13 58 C12.34 58.66 11.68 59.32 11 60 C10.28072705 62.31765729 9.6090107 64.65095874 9 67 C6.625 67.625 6.625 67.625 4 68 C1.28258633 65.28258633 1.27547168 62.5239022 0.78125 58.8671875 C0.67784302 58.1565213 0.57443604 57.4458551 0.46789551 56.71365356 C0.13739122 54.43515149 -0.18201162 52.15527976 -0.5 49.875 C-0.81941404 47.61639 -1.14131058 45.35820106 -1.46789551 43.10061646 C-1.67056226 41.69653535 -1.86901136 40.29183618 -2.06237793 38.88644409 C-2.73991787 34.14986775 -3.78221664 29.61946681 -5 25 C-5.16085083 25.58789307 -5.32170166 26.17578613 -5.48742676 26.78149414 C-6.13512185 29.1466402 -6.78635856 31.51080052 -7.4375 33.875 C-7.66759766 34.71675781 -7.89769531 35.55851562 -8.13476562 36.42578125 C-8.35712891 37.23144531 -8.57949219 38.03710938 -8.80859375 38.8671875 C-9.11494751 39.98262939 -9.11494751 39.98262939 -9.42749023 41.12060547 C-10 43 -10 43 -11 45 C-13.25 45.3125 -13.25 45.3125 -16 45 C-20 40.89189189 -20 40.89189189 -20 38 C-20.721875 38.66 -21.44375 39.32 -22.1875 40 C-27.05428141 43.30706592 -33.37946737 42.66763233 -39 42 C-39.66 41.34 -40.32 40.68 -41 40 C-40.46428571 36.46428571 -40.46428571 36.46428571 -39 35 C-36.00093801 34.50091253 -32.99375728 34.09904178 -29.98046875 33.6953125 C-26.86784465 32.96916952 -25.48323727 31.90856028 -23 30 C-19.67955183 30.22899643 -16.989803 30.5050985 -14 32 C-13.90203125 31.20078125 -13.8040625 30.4015625 -13.703125 29.578125 C-12.75917123 22.64494727 -11.32295989 16.32154022 -8.90234375 9.75390625 C-7.899703 6.95137328 -7.899703 6.95137328 -7.50390625 3.71484375 C-7.33761719 2.81894531 -7.17132813 1.92304688 -7 1 C-4.53721199 -0.231394 -2.7204945 -0.07159196 0 0 Z M5 35 C6 37 6 37 6 37 Z " fill="#A4BB29" transform="translate(185,14)"/>
<path d="M0 0 C5.43846674 5.43523763 8.49773169 10.42957775 8.78125 18.19921875 C8.72881319 20.69652199 8.63447385 23.19326868 8.5 25.6875 C8.46390625 26.97333984 8.4278125 28.25917969 8.390625 29.58398438 C8.29718621 32.72586385 8.16632374 35.86127913 8 39 C8.66 39 9.32 39 10 39 C10 39.66 10 40.32 10 41 C11.32 41.66 12.64 42.32 14 43 C13.67 43.99 13.34 44.98 13 46 C9.78767875 47.07077375 7.36062193 47 4 47 C3.01 47.33 2.02 47.66 1 48 C-1.0625 47.75 -1.0625 47.75 -3 47 C-3.66 46.01 -4.32 45.02 -5 44 C-6.0725 44.66 -7.145 45.32 -8.25 46 C-13.71020553 48.73010276 -19.02039607 48.6915762 -25 48 C-30.51036565 46.09641914 -34.3893992 42.7087377 -37.375 37.6875 C-38.47518829 32.95669037 -38.1040508 29.10495498 -35.87109375 24.84765625 C-32.4760888 19.88003321 -28.83755265 16.64358279 -23 15 C-16.8702497 14.06495334 -11.06862751 13.52506456 -5 15 C-5.495 11.535 -5.495 11.535 -6 8 C-10.94734492 5.97032003 -15.71839562 4.92759302 -21 6 C-23.28586971 7.38684159 -25.19567781 8.89419877 -27.17578125 10.6875 C-29 12 -29 12 -33 12 C-32.45276317 8.62537285 -31.9451 6.91765 -30 4 C-29.34 4 -28.68 4 -28 4 C-28 3.34 -28 2.68 -28 2 C-27.01 2 -26.02 2 -25 2 C-25 1.34 -25 0.68 -25 0 C-17.29726841 -2.73874901 -7.43138465 -3.78579973 0 0 Z M-23 24 C-25.12969485 27.19454228 -25.2390304 27.49146925 -24.6875 31 C-24.58824219 31.680625 -24.48898438 32.36125 -24.38671875 33.0625 C-24.00096755 35.20446315 -24.00096755 35.20446315 -23 38 C-17.37525647 40.6784493 -13.05207377 39.67823862 -7.1875 38.375 C-4.70268522 37.09509551 -4.70268522 37.09509551 -3.625 33.9375 C-2.9197649 29.49451889 -2.83579086 25.37517305 -4 21 C-10.50311054 17.74844473 -17.51066434 19.99735942 -23 24 Z " fill="#46A364" transform="translate(221,97)"/>
<path d="M0 0 C7.26 0 14.52 0 22 0 C22.33 0.99 22.66 1.98 23 3 C22.484375 3.391875 21.96875 3.78375 21.4375 4.1875 C20.963125 4.785625 20.48875 5.38375 20 6 C20.44468388 9.46970448 21.48994625 12.52528728 22.8125 15.75 C23.34617187 17.05324219 23.34617187 17.05324219 23.890625 18.3828125 C25.23671892 21.5584566 26.64738404 24.70233991 28.0625 27.84765625 C29.23369751 30.53653054 30.27046932 33.26021792 31.2734375 36.015625 C31.78295281 37.40720444 32.31061482 38.79221027 32.8515625 40.171875 C35 45.67348131 35 45.67348131 35 49 C37.01825915 48.29382974 37.01825915 48.29382974 39 47 C39.77080106 45.09363556 39.77080106 45.09363556 40 42.875 C40.59132109 39.59395287 41.35365333 36.99709893 42.9375 34.0625 C44.96022027 30.30815205 46.067803 26.54831013 47.2109375 22.453125 C48.20074153 19.37591246 49.63358216 16.67281519 51.1484375 13.828125 C52.33293867 11.28525093 52.72252446 8.77475544 53 6 C52.01 5.34 51.02 4.68 50 4 C50.33 2.68 50.66 1.36 51 0 C56.28 0 61.56 0 67 0 C67.495 1.98 67.495 1.98 68 4 C67 5 67 5 64.4375 5.0625 C63.2309375 5.0315625 63.2309375 5.0315625 62 5 C61.4740625 6.7015625 61.4740625 6.7015625 60.9375 8.4375 C58.12678765 16.86963704 54.50618174 25.01506864 51.07519531 33.20849609 C50.17230963 35.36700254 49.27265614 37.5268138 48.375 39.6875 C48.08359131 40.38713867 47.79218262 41.08677734 47.49194336 41.80761719 C45.15600419 47.4773083 43.1384293 53.21514791 41.23828125 59.046875 C39.91177491 62.21040431 38.25651438 64.43469944 36 67 C33.16015625 66.8359375 33.16015625 66.8359375 30 66 C28.49609375 63.6640625 28.49609375 63.6640625 27.4375 60.625 C27.0353125 59.53703125 26.633125 58.4490625 26.21875 57.328125 C25.8165625 56.22984375 25.414375 55.1315625 25 54 C24.16508436 52.11634887 23.31172809 50.24073067 22.4375 48.375 C20.85068413 44.92948392 19.37349519 41.47328481 18 37.9375 C16.68554724 34.5801026 15.22006635 31.38903002 13.5625 28.1875 C11.01466434 23.22551141 9.04689251 18.11049115 7.11328125 12.8828125 C5.40992356 7.79940687 5.40992356 7.79940687 1.375 4.75 C0.59125 4.5025 -0.1925 4.255 -1 4 C-0.67 2.68 -0.34 1.36 0 0 Z " fill="#88B637" transform="translate(49,78)"/>
<path d="M0 0 C0 3.96 0 7.92 0 12 C-1.32 11.67 -2.64 11.34 -4 11 C-4.86625 9.515 -4.86625 9.515 -5.75 8 C-8.19929229 4.70675263 -8.19929229 4.70675263 -11.875 4 C-15.59569161 3.78400479 -18.55450817 4.53566597 -22 6 C-22 7.65 -22 9.3 -22 11 C-18.84478768 12.67569566 -15.5731166 13.97649443 -12.26171875 15.30859375 C1.22325981 20.85543137 1.22325981 20.85543137 4 27 C4.90653261 31.98592935 3.79887824 35.85223459 1.37890625 40.203125 C-2.25295704 44.93586469 -7.56585525 46.15008601 -13.25 46.9375 C-19.41706431 47.28251059 -25.32314933 46.51285474 -31 44 C-33.7525351 39.77289253 -33.16992833 34.92792166 -33 30 C-32.01 30 -31.02 30 -30 30 C-28.82421875 31.42578125 -28.82421875 31.42578125 -27.6875 33.3125 C-25.24028838 36.91048374 -23.22832477 38.59055841 -19 40 C-15.12494204 40.39045261 -11.7284744 40.2428248 -8 39 C-7.45627049 35.94152152 -7 33.11227195 -7 30 C-7.680625 29.89300781 -8.36125 29.78601563 -9.0625 29.67578125 C-12.57364436 28.86803128 -15.68518591 27.59843919 -19 26.1875 C-20.19625 25.68605469 -21.3925 25.18460938 -22.625 24.66796875 C-26.44302075 22.7810534 -30.04373951 20.91252098 -32 17 C-32.66447625 12.86896371 -32.82384502 9.11397769 -32 5 C-23.55148815 -5.66421965 -11.47312496 -3.82437499 0 0 Z " fill="#1E9098" transform="translate(325,98)"/>
<path d="M0 0 C0.66 0.33 1.32 0.66 2 1 C2.60613909 4.98565046 2.74564735 8.97274969 3 13 C6.96 13.33 10.92 13.66 15 14 C15.33 15.65 15.66 17.3 16 19 C13.86264735 21.13735265 9.36198992 20.50995949 6.46875 20.71875 C4.0586395 20.73385265 4.0586395 20.73385265 3 22 C2.91224395 24.14558827 2.89304781 26.29404421 2.90234375 28.44140625 C2.90717773 30.39916992 2.90717773 30.39916992 2.91210938 32.39648438 C2.92046599 33.7851569 2.92893095 35.17382877 2.9375 36.5625 C2.94251334 37.95507656 2.94707653 39.34765481 2.95117188 40.74023438 C2.96300566 44.1601987 2.9794912 47.58007844 3 51 C3.66 51 4.32 51 5 51 C5.33 51.66 5.66 52.32 6 53 C10.20971771 54.0730653 12.387099 54.25630405 16.4375 52.5625 C17.283125 52.046875 18.12875 51.53125 19 51 C19.99 51.99 20.98 52.98 22 54 C18.51909743 58.61651618 15.94966027 61.95005995 10 63 C4.32186447 63.55246724 -0.21497717 63.44966762 -5 60 C-8.49009146 54.88610176 -9.49213339 51.63530354 -9.390625 45.31640625 C-9.38496521 44.61603745 -9.37930542 43.91566864 -9.37347412 43.19407654 C-9.3512922 40.98282055 -9.30113806 38.77325627 -9.25 36.5625 C-9.22991115 35.05275797 -9.21166458 33.54299025 -9.1953125 32.03320312 C-9.15148947 28.35493001 -9.08259341 24.67763044 -9 21 C-11.31 20.67 -13.62 20.34 -16 20 C-16 18.02 -16 16.04 -16 14 C-13.69 14 -11.38 14 -9 14 C-9 10.7 -9 7.4 -9 4 C-2.1640625 0.77734375 -2.1640625 0.77734375 0 0 Z " fill="#7AB13E" transform="translate(159,82)"/>
<path d="M0 0 C-0.00333092 1.0820874 -0.00333092 1.0820874 -0.00672913 2.18603516 C-0.02683461 9.01182987 -0.04202621 15.83762011 -0.05181217 22.66343689 C-0.05701248 26.17195915 -0.06405785 29.68045676 -0.07543945 33.18896484 C-0.08846578 37.23014552 -0.09325178 41.27130065 -0.09765625 45.3125 C-0.10281754 46.5617627 -0.10797882 47.81102539 -0.11329651 49.09814453 C-0.12859365 58.09663138 -0.12859365 58.09663138 1 67 C2.92064793 68.5899433 2.92064793 68.5899433 5 69 C4.67 70.32 4.34 71.64 4 73 C-2.6 73 -9.2 73 -16 73 C-16.66 71.68 -17.32 70.36 -18 69 C-16.02 68.505 -16.02 68.505 -14 68 C-13.04208295 64.75495737 -12.84792335 61.78256668 -12.79467773 58.40527344 C-12.7647599 56.72398346 -12.7647599 56.72398346 -12.73423767 55.00872803 C-12.70916893 53.20229828 -12.70916893 53.20229828 -12.68359375 51.359375 C-12.66281265 50.12205627 -12.64203156 48.88473755 -12.62062073 47.60992432 C-12.56634128 44.32861309 -12.51608221 41.04727267 -12.46777344 37.76586914 C-12.41743908 34.41416896 -12.3617364 31.0625628 -12.30664062 27.7109375 C-12.19955491 21.14069536 -12.09776964 14.57038702 -12 8 C-13.65 8 -15.3 8 -17 8 C-16.67 6.35 -16.34 4.7 -16 3 C-14.08487728 2.49411853 -12.16783078 1.99551609 -10.25 1.5 C-8.64898437 1.08234375 -8.64898437 1.08234375 -7.015625 0.65625 C-4 0 -4 0 0 0 Z " fill="#0D8E92" transform="translate(255,71)"/>
<path d="M0 0 C0.67047742 4.10355363 1.33572962 8.2079374 2 12.3125 C2.19078125 13.47974609 2.3815625 14.64699219 2.578125 15.84960938 C2.75859375 16.96787109 2.9390625 18.08613281 3.125 19.23828125 C3.37636719 20.7857605 3.37636719 20.7857605 3.6328125 22.36450195 C4 25 4 25 4 28 C4.66 28 5.32 28 6 28 C5.67 33.61 5.34 39.22 5 45 C5.66 45 6.32 45 7 45 C6.67 47.31 6.34 49.62 6 52 C7.98 51.505 7.98 51.505 10 51 C9.03644647 60.41002278 9.03644647 60.41002278 8 65 C6.35 64.67 4.7 64.34 3 64 C1.76160401 57.34362157 1.90860864 50.7528064 2 44 C1.34 44 0.68 44 0 44 C0 42.02 0 40.04 0 38 C-0.66 38 -1.32 38 -2 38 C-2.99 33.71 -3.98 29.42 -5 25 C-5.52400391 26.91425781 -5.52400391 26.91425781 -6.05859375 28.8671875 C-6.51812037 30.53648829 -6.97776174 32.20575749 -7.4375 33.875 C-7.66759766 34.71675781 -7.89769531 35.55851562 -8.13476562 36.42578125 C-8.35712891 37.23144531 -8.57949219 38.03710938 -8.80859375 38.8671875 C-9.11494751 39.98262939 -9.11494751 39.98262939 -9.42749023 41.12060547 C-10 43 -10 43 -11 45 C-13.25 45.3125 -13.25 45.3125 -16 45 C-20 40.89189189 -20 40.89189189 -20 38 C-20.721875 38.66 -21.44375 39.32 -22.1875 40 C-27.05428141 43.30706592 -33.37946737 42.66763233 -39 42 C-39.66 41.34 -40.32 40.68 -41 40 C-40.46428571 36.46428571 -40.46428571 36.46428571 -39 35 C-36.00093801 34.50091253 -32.99375728 34.09904178 -29.98046875 33.6953125 C-26.86784465 32.96916952 -25.48323727 31.90856028 -23 30 C-19.67955183 30.22899643 -16.989803 30.5050985 -14 32 C-13.90203125 31.20078125 -13.8040625 30.4015625 -13.703125 29.578125 C-12.75917123 22.64494727 -11.32295989 16.32154022 -8.90234375 9.75390625 C-7.899703 6.95137328 -7.899703 6.95137328 -7.50390625 3.71484375 C-7.33761719 2.81894531 -7.17132813 1.92304688 -7 1 C-4.53721199 -0.231394 -2.7204945 -0.07159196 0 0 Z " fill="#D0A21D" transform="translate(185,14)"/>
<path d="M0 0 C0 3.3 0 6.6 0 10 C-0.495 8.02 -0.495 8.02 -1 6 C-11.2851738 5.29114328 -11.2851738 5.29114328 -20 10 C-21.35808847 14.58354858 -21.01654498 18.36907289 -20 23 C-13.40609458 23.99989549 -8.38232875 24.00925164 -2 22 C-2 21.34 -2 20.68 -2 20 C-1.34 20 -0.68 20 0 20 C0.495 21.485 0.495 21.485 1 23 C0.34 23 -0.32 23 -1 23 C-1.2236068 25.9254644 -1.2236068 25.9254644 0 28 C0.66 28 1.32 28 2 28 C2 28.66 2 29.32 2 30 C3.32 30.66 4.64 31.32 6 32 C4 33 4 33 2 32.75 C0 32 0 32 -2 29 C-3.0725 29.66 -4.145 30.32 -5.25 31 C-10.71020553 33.73010276 -16.02039607 33.6915762 -22 33 C-27.51036565 31.09641914 -31.3893992 27.7087377 -34.375 22.6875 C-35.47518829 17.95669037 -35.1040508 14.10495498 -32.87109375 9.84765625 C-28.67613314 3.70952587 -23.9175648 0.99859495 -16.8125 -0.8125 C-11.16643967 -1.0901751 -5.61892089 -0.54921783 0 0 Z " fill="#5FA64F" transform="translate(218,112)"/>
<path d="M0 0 C0.33 13.86 0.66 27.72 1 42 C2.65 42.66 4.3 43.32 6 44 C5.67 45.32 5.34 46.64 5 48 C-1.93 48 -8.86 48 -16 48 C-16.33 46.68 -16.66 45.36 -17 44 C-13.25 41 -13.25 41 -11 41 C-11.01949872 36.83645027 -11.07144648 32.6749053 -11.15258789 28.51220703 C-11.17568526 27.09826063 -11.19014419 25.68414421 -11.19555664 24.27001953 C-10.86680773 15.08119658 -10.86680773 15.08119658 -14.55078125 7.0390625 C-15.35902344 6.36617188 -16.16726562 5.69328125 -17 5 C-16 3 -16 3 -13.92578125 2.1484375 C-13.06339844 1.89320312 -12.20101562 1.63796875 -11.3125 1.375 C-10.03826172 0.98441406 -10.03826172 0.98441406 -8.73828125 0.5859375 C-6 0 -6 0 0 0 Z " fill="#7CB535" transform="translate(134,96)"/>
<path d="M0 0 C0.33 13.86 0.66 27.72 1 42 C2.32 42.33 3.64 42.66 5 43 C5.33 44.32 5.66 45.64 6 47 C2.11122133 47.91415319 -1.50909382 48.13432455 -5.5 48.125 C-6.6034375 48.12757813 -7.706875 48.13015625 -8.84375 48.1328125 C-11.68492244 48.01325821 -14.23807642 47.64925815 -17 47 C-16.75 45.125 -16.75 45.125 -16 43 C-14.68 42.34 -13.36 41.68 -12 41 C-12 30.11 -12 19.22 -12 8 C-14.475 7.01 -14.475 7.01 -17 6 C-16.67 5.01 -16.34 4.02 -16 3 C-13.671875 2.05078125 -13.671875 2.05078125 -10.75 1.3125 C-9.31914062 0.93544922 -9.31914062 0.93544922 -7.859375 0.55078125 C-5 0 -5 0 0 0 Z " fill="#23949B" transform="translate(281,96)"/>
<path d="M0 0 C5.28 0 10.56 0 16 0 C16.33 1.32 16.66 2.64 17 4 C16 5 16 5 13.4375 5.0625 C12.2309375 5.0315625 12.2309375 5.0315625 11 5 C10.4740625 6.7015625 10.4740625 6.7015625 9.9375 8.4375 C7.64079379 15.32761863 4.76032392 21.98327541 1.96142578 28.68017578 C0.97904237 31.05056867 0.01628629 33.42812652 -0.94140625 35.80859375 C-1.2549707 36.58396484 -1.56853516 37.35933594 -1.89160156 38.15820312 C-2.49493298 39.65149637 -3.09467939 41.14624423 -3.69042969 42.64257812 C-5.77554329 47.77554329 -5.77554329 47.77554329 -8 50 C-8 49.01 -8 48.02 -8 47 C-10.97 47.495 -10.97 47.495 -14 48 C-13.01 47.505 -13.01 47.505 -12 47 C-11.45667442 45.14816298 -11.45667442 45.14816298 -11.125 42.9375 C-10.31030947 38.87046226 -8.95902651 35.72653259 -7.00390625 32.09765625 C-5.51992443 28.99688489 -4.71103365 25.75601065 -3.7890625 22.453125 C-2.79925847 19.37591246 -1.36641784 16.67281519 0.1484375 13.828125 C1.33293867 11.28525093 1.72252446 8.77475544 2 6 C1.01 5.34 0.02 4.68 -1 4 C-0.67 2.68 -0.34 1.36 0 0 Z " fill="#88B142" transform="translate(100,78)"/>
<path d="M0 0 C0.33 0 0.66 0 1 0 C1.33 4.29 1.66 8.58 2 13 C3.41577477 11.81575674 3.41577477 11.81575674 3.0625 8.4375 C3.041875 7.303125 3.02125 6.16875 3 5 C3.99 5.33 4.98 5.66 6 6 C3.37359551 22.25280899 3.37359551 22.25280899 0 29 C-2.25 29.3125 -2.25 29.3125 -5 29 C-9 24.89189189 -9 24.89189189 -9 22 C-10.0828125 22.99 -10.0828125 22.99 -11.1875 24 C-16.05428141 27.30706592 -22.37946737 26.66763233 -28 26 C-28.66 25.34 -29.32 24.68 -30 24 C-29.46428571 20.46428571 -29.46428571 20.46428571 -28 19 C-25.00093801 18.50091253 -21.99375728 18.09904178 -18.98046875 17.6953125 C-15.86784465 16.96916952 -14.48323727 15.90856028 -12 14 C-8.67955183 14.22899643 -5.989803 14.5050985 -3 16 C-2.86722656 15.09636719 -2.73445313 14.19273438 -2.59765625 13.26171875 C-2.33275391 11.49248047 -2.33275391 11.49248047 -2.0625 9.6875 C-1.88847656 8.51574219 -1.71445313 7.34398437 -1.53515625 6.13671875 C-1 3 -1 3 0 0 Z " fill="#D5AA36" transform="translate(174,30)"/>
<path d="M0 0 C-0.20625 0.825 -0.4125 1.65 -0.625 2.5 C-1.0940915 6.87818732 -0.23317492 9.79269734 1 14 C0.01 14.33 -0.98 14.66 -2 15 C-2 14.34 -2 13.68 -2 13 C-2.66 13 -3.32 13 -4 13 C-4.33 13.66 -4.66 14.32 -5 15 C-5.33 12.69 -5.66 10.38 -6 8 C-10.94734492 5.97032003 -15.71839562 4.92759302 -21 6 C-23.28586971 7.38684159 -25.19567781 8.89419877 -27.17578125 10.6875 C-29 12 -29 12 -33 12 C-32.45276317 8.62537285 -31.9451 6.91765 -30 4 C-29.34 4 -28.68 4 -28 4 C-28 3.34 -28 2.68 -28 2 C-27.01 2 -26.02 2 -25 2 C-25 1.34 -25 0.68 -25 0 C-16.67128251 -2.96132177 -8.32871749 -2.96132177 0 0 Z " fill="#429A5C" transform="translate(221,97)"/>
<path d="M0 0 C0 3.96 0 7.92 0 12 C-0.33 12 -0.66 12 -1 12 C-1.33 9.36 -1.66 6.72 -2 4 C-2.99 4 -3.98 4 -5 4 C-5 5.32 -5 6.64 -5 8 C-5.66 8 -6.32 8 -7 8 C-7.33 9.32 -7.66 10.64 -8 12 C-7.01 12 -6.02 12 -5 12 C-5.33 13.65 -5.66 15.3 -6 17 C-6.66 17 -7.32 17 -8 17 C-9.20710262 21.79834032 -9.2220623 26.54003176 -9.31640625 31.45703125 C-9.33718735 32.35999435 -9.35796844 33.26295746 -9.37937927 34.19328308 C-9.4445528 37.06628097 -9.50360955 39.93936714 -9.5625 42.8125 C-9.60571586 44.76498294 -9.64933112 46.71745708 -9.69335938 48.66992188 C-9.80020107 53.44652503 -9.90155857 58.22321664 -10 63 C-10.66 63 -11.32 63 -12 63 C-12 44.85 -12 26.7 -12 8 C-13.65 8 -15.3 8 -17 8 C-16.67 6.35 -16.34 4.7 -16 3 C-14.08487728 2.49411853 -12.16783078 1.99551609 -10.25 1.5 C-8.64898437 1.08234375 -8.64898437 1.08234375 -7.015625 0.65625 C-4 0 -4 0 0 0 Z " fill="#409E9F" transform="translate(255,71)"/>
<path d="M0 0 C0.33 13.86 0.66 27.72 1 42 C2.65 42.66 4.3 43.32 6 44 C5.67 45.32 5.34 46.64 5 48 C-1.93 48 -8.86 48 -16 48 C-16.33 46.68 -16.66 45.36 -17 44 C-14.525 43.505 -14.525 43.505 -12 43 C-12 43.66 -12 44.32 -12 45 C-7.71 45 -3.42 45 1 45 C0.34 44.34 -0.32 43.68 -1 43 C-1.17532289 40.13111419 -1.23137614 37.36007355 -1.1953125 34.4921875 C-1.1924826 33.65156769 -1.18965271 32.81094788 -1.18673706 31.94485474 C-1.1755243 29.25475954 -1.15041803 26.5649949 -1.125 23.875 C-1.1149716 22.05339022 -1.10584551 20.23177523 -1.09765625 18.41015625 C-1.07558142 13.93997642 -1.04104434 9.47004429 -1 5 C-2.32 5.33 -3.64 5.66 -5 6 C-5 5.01 -5 4.02 -5 3 C-6.65 3.33 -8.3 3.66 -10 4 C-9.83250244 4.86061035 -9.66500488 5.7212207 -9.49243164 6.60791016 C-9.00879915 9.93938753 -8.97149371 12.91574773 -9.12109375 16.2734375 C-9.16943359 17.42714844 -9.21777344 18.58085938 -9.26757812 19.76953125 C-9.32365234 20.95933594 -9.37972656 22.14914063 -9.4375 23.375 C-9.48970703 24.58800781 -9.54191406 25.80101563 -9.59570312 27.05078125 C-9.72490392 30.03414513 -9.85985041 33.01713373 -10 36 C-10.33 36 -10.66 36 -11 36 C-11.00410889 35.27409668 -11.00821777 34.54819336 -11.01245117 33.80029297 C-11.0454749 30.49105084 -11.11613026 27.18362816 -11.1875 23.875 C-11.19620117 22.16183594 -11.19620117 22.16183594 -11.20507812 20.4140625 C-11.26501607 13.28202181 -11.26501607 13.28202181 -14.55078125 7.1953125 C-15.76314453 6.10863281 -15.76314453 6.10863281 -17 5 C-16 3 -16 3 -13.92578125 2.1484375 C-13.06339844 1.89320312 -12.20101562 1.63796875 -11.3125 1.375 C-10.03826172 0.98441406 -10.03826172 0.98441406 -8.73828125 0.5859375 C-6 0 -6 0 0 0 Z " fill="#7AA144" transform="translate(134,96)"/>
<path d="M0 0 C0.99 0 1.98 0 3 0 C4.17578125 1.42578125 4.17578125 1.42578125 5.3125 3.3125 C7.75971162 6.91048374 9.77167523 8.59055841 14 10 C17.87505796 10.39045261 21.2715256 10.2428248 25 9 C26.22520264 5.99152582 26.22520264 5.99152582 27 3 C27.66 3.33 28.32 3.66 29 4 C28.9375 6.8125 28.9375 6.8125 28 10 C25.72555566 11.4926041 23.62038301 12.14242011 21 13 C22.32 13.33 23.64 13.66 25 14 C25 14.66 25 15.32 25 16 C16.99641439 17.30767245 9.54475347 17.33968086 2 14 C-0.7525351 9.77289253 -0.16992833 4.92792166 0 0 Z " fill="#36878D" transform="translate(292,128)"/>
<path d="M0 0 C1.65 0.33 3.3 0.66 5 1 C5.1968999 3.35371114 5.38270974 5.7074695 5.5625 8.0625 C5.66691406 9.37347656 5.77132812 10.68445313 5.87890625 12.03515625 C5.99765619 15.92325897 5.66866216 19.19110223 5 23 C4.67 23 4.34 23 4 23 C3.67 25.64 3.34 28.28 3 31 C2.34 30.67 1.68 30.34 1 30 C1 29.01 1 28.02 1 27 C-0.65 27.33 -2.3 27.66 -4 28 C-4.2358396 22.22192976 -3.86783046 17.48675196 -2 12 C-1.34 12.33 -0.68 12.66 0 13 C0 12.01 0 11.02 0 10 C-0.99 9.67 -1.98 9.34 -3 9 C-2.34 7.68 -1.68 6.36 -1 5 C-0.34 5 0.32 5 1 5 C0.67 3.35 0.34 1.7 0 0 Z " fill="#0E8F92" transform="translate(249,74)"/>
<path d="M0 0 C5.28 0 10.56 0 16 0 C16.33 1.32 16.66 2.64 17 4 C16 5 16 5 13.4375 5.0625 C12.2309375 5.0315625 12.2309375 5.0315625 11 5 C10.82984375 5.53367187 10.6596875 6.06734375 10.484375 6.6171875 C8.56536676 12.5171171 6.35945761 18.26304469 4 24 C3.67 24 3.34 24 3 24 C2.32741333 21.66836622 1.66152556 19.3347961 1 17 C0.7525 16.34 0.505 15.68 0.25 15 C-0.15293365 11.7765308 1.00594751 9.04063114 2 6 C1.01 5.34 0.02 4.68 -1 4 C-0.67 2.68 -0.34 1.36 0 0 Z " fill="#80AA34" transform="translate(100,78)"/>
<path d="M0 0 C0.66 0.33 1.32 0.66 2 1 C2.05447047 2.41623216 2.09300508 3.83308191 2.125 5.25 C2.14820313 6.03890625 2.17140625 6.8278125 2.1953125 7.640625 C1.97810916 10.26444136 1.28918222 11.72470647 0 14 C-0.31839844 14.69480469 -0.63679687 15.38960937 -0.96484375 16.10546875 C-1.28582031 16.79253906 -1.60679687 17.47960937 -1.9375 18.1875 C-2.25589844 18.88230469 -2.57429687 19.57710937 -2.90234375 20.29296875 C-4 22 -4 22 -7 23 C-6.67 20.69 -6.34 18.38 -6 16 C-8.97 16 -11.94 16 -15 16 C-15.33 17.32 -15.66 18.64 -16 20 C-16 18.02 -16 16.04 -16 14 C-13.69 14 -11.38 14 -9 14 C-9 10.7 -9 7.4 -9 4 C-2.1640625 0.77734375 -2.1640625 0.77734375 0 0 Z " fill="#7FB543" transform="translate(159,82)"/>
<path d="M0 0 C-0.33 0.99 -0.66 1.98 -1 3 C-3.31 3.33 -5.62 3.66 -8 4 C-8 5.32 -8 6.64 -8 8 C-7.34 8 -6.68 8 -6 8 C-6.15847412 9.0010376 -6.31694824 10.0020752 -6.48022461 11.03344727 C-7.02299979 14.84435196 -7.20459477 18.61533412 -7.31640625 22.46484375 C-7.33718735 23.14301651 -7.35796844 23.82118927 -7.37937927 24.51991272 C-7.44409309 26.65901831 -7.5033909 28.79823296 -7.5625 30.9375 C-7.60575984 32.39909924 -7.64937634 33.86068797 -7.69335938 35.32226562 C-7.79969251 38.8813984 -7.9011733 42.44064997 -8 46 C-8.66 46 -9.32 46 -10 46 C-10.33 46.66 -10.66 47.32 -11 48 C-12.65 47.67 -14.3 47.34 -16 47 C-15.75 45.125 -15.75 45.125 -15 43 C-13.68 42.34 -12.36 41.68 -11 41 C-11 30.11 -11 19.22 -11 8 C-13.475 7.01 -13.475 7.01 -16 6 C-15.67 5.01 -15.34 4.02 -15 3 C-12.63671875 2.05078125 -12.63671875 2.05078125 -9.6875 1.3125 C-8.72199219 1.06113281 -7.75648438 0.80976562 -6.76171875 0.55078125 C-4 0 -4 0 0 0 Z " fill="#3F979E" transform="translate(280,96)"/>
<path d="M0 0 C0 3.96 0 7.92 0 12 C-1.32 11.67 -2.64 11.34 -4 11 C-4.86625 9.515 -4.86625 9.515 -5.75 8 C-7.78959686 4.6330416 -7.78959686 4.6330416 -11.8125 4 C-15.89513669 3.76254833 -19.16856515 4.64303349 -23 6 C-23 5.01 -23 4.02 -23 3 C-20.59454362 1.79727181 -19.05003047 1.89928528 -16.375 1.9375 C-15.14910156 1.95103516 -15.14910156 1.95103516 -13.8984375 1.96484375 C-12.95871094 1.98224609 -12.95871094 1.98224609 -12 2 C-12 1.34 -12 0.68 -12 0 C-16.16138263 -0.08159574 -19.9472484 0.01751476 -24 1 C-24 1.66 -24 2.32 -24 3 C-25.32 2.67 -26.64 2.34 -28 2 C-19.38600927 -5.62953465 -10.08978886 -3.36326295 0 0 Z " fill="#2B8488" transform="translate(325,98)"/>
<path d="M0 0 C2.80045623 3.14591933 3.35261589 5.067064 3.1875 9.25 C3.16042969 10.14203125 3.13335937 11.0340625 3.10546875 11.953125 C3.07066406 12.62859375 3.03585938 13.3040625 3 14 C3.66 14 4.32 14 5 14 C4.67 16.31 4.34 18.62 4 21 C5.32 20.67 6.64 20.34 8 20 C7.03644647 29.41002278 7.03644647 29.41002278 6 34 C4.35 33.67 2.7 33.34 1 33 C-0.23839599 26.34362157 -0.09139136 19.7528064 0 13 C-0.66 13 -1.32 13 -2 13 C-2.33 10.03 -2.66 7.06 -3 4 C-2.34 4 -1.68 4 -1 4 C-0.67 2.68 -0.34 1.36 0 0 Z " fill="#CAA51D" transform="translate(187,45)"/>
<path d="M0 0 C2.81870287 2.81870287 2.7303841 5.09056945 3 9 C2.5625 11.375 2.5625 11.375 1 13 C-3.07476824 13.98583102 -5.58292774 14.5314021 -9.5 13.0625 C-11.50893067 10.30022032 -11.57042243 8.23580003 -11.37890625 4.875 C-11 3 -11 3 -9.4375 1 C-6.13775866 -0.35374004 -3.52986508 -0.32683936 0 0 Z " fill="#8CB44A" transform="translate(132,77)"/>
<path d="M0 0 C0.99 0.66 1.98 1.32 3 2 C3.99 1.67 4.98 1.34 6 1 C6.66 1.66 7.32 2.32 8 3 C6.68 3 5.36 3 4 3 C4.33 5.31 4.66 7.62 5 10 C4.195625 10.12375 3.39125 10.2475 2.5625 10.375 C1.716875 10.58125 0.87125 10.7875 0 11 C-0.33 11.66 -0.66 12.32 -1 13 C-1.66 12.67 -2.32 12.34 -3 12 C-3 13.98 -3 15.96 -3 18 C-4.32 18.33 -5.64 18.66 -7 19 C-6.67 16.69 -6.34 14.38 -6 12 C-6.66 12 -7.32 12 -8 12 C-8.125 4.375 -8.125 4.375 -7 1 C-4.05697101 -0.96201933 -3.48011144 -1.16003715 0 0 Z " fill="#ADBA25" transform="translate(198,47)"/>
<path d="M0 0 C1 1 1 1 1.09765625 3.28515625 C1.08605469 4.20167969 1.07445312 5.11820312 1.0625 6.0625 C1.05347656 6.98160156 1.04445313 7.90070313 1.03515625 8.84765625 C1.02355469 9.55792969 1.01195312 10.26820312 1 11 C-3.00459696 13.28456082 -5.49174708 13.08532015 -10 12 C-12.31282587 8.53076119 -12.42478586 7.07794425 -12 3 C-8.50468227 -1.60746429 -5.39615704 -0.98111946 0 0 Z " fill="#28918F" transform="translate(280,78)"/>
<path d="M0 0 C2.58148508 0.35606691 3.82045747 0.83328193 5.75 2.625 C7.53781704 6.02185237 7.44444176 8.19049921 7 12 C5.5980022 16.30896499 3.96025941 19.24551047 0.375 22.0625 C-4.2687463 23.35242953 -8.29293254 22.7721079 -13 22 C-9.43904445 20.12498358 -5.8877114 19.04669153 -2 18 C-1.91995518 14.4780279 -1.95994298 11.38018531 -3 8 C-2.21625 8.66 -1.4325 9.32 -0.625 10 C1.71512812 12.20201441 1.71512812 12.20201441 4 12 C3.91253716 10.56138706 3.80434652 9.12402492 3.6875 7.6875 C3.62949219 6.88699219 3.57148438 6.08648437 3.51171875 5.26171875 C2.91793306 2.63727666 2.04219706 1.69179328 0 0 Z " fill="#188489" transform="translate(322,120)"/>
<path d="M0 0 C1.58628608 0.59637091 3.16892059 1.20245925 4.75 1.8125 C5.63171875 2.14894531 6.5134375 2.48539062 7.421875 2.83203125 C10.01452903 4.00658209 11.96602682 5.00369299 14 7 C14.390625 9.26171875 14.390625 9.26171875 14.25 11.6875 C14.21390625 12.49574219 14.1778125 13.30398437 14.140625 14.13671875 C14.07101562 15.05904297 14.07101562 15.05904297 14 16 C12.68 16.33 11.36 16.66 10 17 C9.52820313 16.27683594 9.52820313 16.27683594 9.046875 15.5390625 C5.90611252 10.74628648 5.90611252 10.74628648 1 8 C1.66 6.02 2.32 4.04 3 2 C2.34 2 1.68 2 1 2 C0.67 2.66 0.34 3.32 0 4 C0 2.68 0 1.36 0 0 Z " fill="#0A8E98" transform="translate(312,116)"/>
<path d="M0 0 C0.66 0 1.32 0 2 0 C2.33 0.99 2.66 1.98 3 3 C2.34 3 1.68 3 1 3 C0.7763932 5.9254644 0.7763932 5.9254644 2 8 C2.66 8 3.32 8 4 8 C4 8.66 4 9.32 4 10 C5.32 10.66 6.64 11.32 8 12 C6 13 6 13 4 12.75 C2 12 2 12 0 9 C-0.70125 9.309375 -1.4025 9.61875 -2.125 9.9375 C-7.75868841 12.01951528 -13.07328657 12.10218471 -19 12 C-16 10 -16 10 -14 10 C-14.33 8.68 -14.66 7.36 -15 6 C-11.37 6 -7.74 6 -4 6 C-4 5.34 -4 4.68 -4 4 C-3.34 4 -2.68 4 -2 4 C-2 3.34 -2 2.68 -2 2 C-1.34 2 -0.68 2 0 2 C0 1.34 0 0.68 0 0 Z " fill="#52A255" transform="translate(216,132)"/>
<path d="M0 0 C7.26 0 14.52 0 22 0 C22.33 0.99 22.66 1.98 23 3 C21.59554165 5.2636564 19.8032087 7.0208685 18 9 C17.34 8.67 16.68 8.34 16 8 C16 6.35 16 4.7 16 3 C13.03 3 10.06 3 7 3 C7.33 3.33 7.66 3.66 8 4 C8.04063832 5.66617115 8.042721 7.33388095 8 9 C7.01 9.495 7.01 9.495 6 10 C5.6596875 9.071875 5.6596875 9.071875 5.3125 8.125 C3.62070165 5.38589791 2.00755839 4.94975528 -1 4 C-0.67 2.68 -0.34 1.36 0 0 Z " fill="#7BA036" transform="translate(49,78)"/>
<path d="M0 0 C0 5.94 0 11.88 0 18 C-0.99 18 -1.98 18 -3 18 C-3.2475 17.38125 -3.495 16.7625 -3.75 16.125 C-5.20628639 13.64931313 -6.37812506 13.04874998 -9 12 C-7.68 11.34 -6.36 10.68 -5 10 C-5.66 9.67 -6.32 9.34 -7 9 C-7.625 5.9375 -7.625 5.9375 -8 3 C-1.125 0 -1.125 0 0 0 Z " fill="#53AD73" transform="translate(229,111)"/>
<path d="M0 0 C0.33 0.99 0.66 1.98 1 3 C-3.40454453 7.82402496 -6.4287083 10.54698911 -13.16796875 11.21484375 C-18.23178935 11.42689654 -21.5841147 10.71746788 -26 8 C-26 7.34 -26 6.68 -26 6 C-24.35 6 -22.7 6 -21 6 C-20.67 6.99 -20.34 7.98 -20 9 C-17.03 9 -14.06 9 -11 9 C-11 8.34 -11 7.68 -11 7 C-10.01 6.34 -9.02 5.68 -8 5 C-7.855625 4.34 -7.71125 3.68 -7.5625 3 C-7 1 -7 1 -5.125 -0.3125 C-3 -1 -3 -1 0 0 Z " fill="#86B254" transform="translate(180,134)"/>
<path d="M0 0 C0.33 0 0.66 0 1 0 C1.01981934 1.10512939 1.03963867 2.21025879 1.06005859 3.34887695 C1.13610449 7.44725413 1.22482329 11.54527579 1.31738281 15.64331055 C1.35567679 17.41732771 1.39052895 19.19142264 1.421875 20.96557617 C1.46751672 23.51509399 1.52551185 26.0640763 1.5859375 28.61328125 C1.59748871 29.40712723 1.60903992 30.20097321 1.62094116 31.01887512 C1.72355385 34.84323908 1.83064066 36.74596099 4 40 C-1.28 40 -6.56 40 -12 40 C-11.01 39.505 -11.01 39.505 -10 39 C-10 38.34 -10 37.68 -10 37 C-10.66 36.67 -11.32 36.34 -12 36 C-10.02 35.505 -10.02 35.505 -8 35 C-8 34.34 -8 33.68 -8 33 C-7.34 33 -6.68 33 -6 33 C-5.67 33.66 -5.34 34.32 -5 35 C-4.01 35.33 -3.02 35.66 -2 36 C-2 36.99 -2 37.98 -2 39 C-0.75526468 35.26579403 -0.76790215 31.72634762 -0.68359375 27.83203125 C-0.66281265 27.03721848 -0.64203156 26.2424057 -0.62062073 25.42350769 C-0.55527913 22.88659237 -0.49631192 20.34957427 -0.4375 17.8125 C-0.39430014 16.09178628 -0.35068537 14.37108292 -0.30664062 12.65039062 C-0.19961352 8.43369887 -0.09830276 4.2169038 0 0 Z " fill="#74AD2D" transform="translate(132,102)"/>
<path d="M0 0 C0.33 0.99 0.66 1.98 1 3 C0.443125 3.391875 -0.11375 3.78375 -0.6875 4.1875 C-3.12910553 6.02632249 -3.12910553 6.02632249 -5.5625 8.5625 C-8 11 -8 11 -11 13 C-12.32 13 -13.64 13 -15 13 C-14.45276317 9.62537285 -13.9451 7.91765 -12 5 C-11.34 5 -10.68 5 -10 5 C-10 4.34 -10 3.68 -10 3 C-9.01 3 -8.02 3 -7 3 C-7 2.34 -7 1.68 -7 1 C-4 0 -4 0 0 0 Z " fill="#6DA563" transform="translate(203,96)"/>
<path d="M0 0 C0.33 0.99 0.66 1.98 1 3 C6.52967941 3.71033431 11.49983036 4.30267176 17 3 C16.01 3.495 16.01 3.495 15 4 C15 4.66 15 5.32 15 6 C11.52674819 7.1577506 8.63932552 7.06866652 5 7 C5 7.99 5 8.98 5 10 C4.01 10.495 4.01 10.495 3 11 C6.3 11 9.6 11 13 11 C11 13 11 13 8.28515625 13.23046875 C7.22167969 13.21628906 6.15820312 13.20210937 5.0625 13.1875 C4.00160156 13.18105469 2.94070312 13.17460937 1.84765625 13.16796875 C-1 13 -1 13 -4 12 C-4.33 11.01 -4.66 10.02 -5 9 C-4.34 9 -3.68 9 -3 9 C-3 8.34 -3 7.68 -3 7 C-2.01 6.67 -1.02 6.34 0 6 C0 4.02 0 2.04 0 0 Z " fill="#70B167" transform="translate(197,132)"/>
<path d="M0 0 C0.33 0 0.66 0 1 0 C1.02505615 0.80630859 1.0501123 1.61261719 1.07592773 2.44335938 C1.1926268 6.12903875 1.31501591 9.81450852 1.4375 13.5 C1.47681641 14.7684375 1.51613281 16.036875 1.55664062 17.34375 C1.81023391 26.71775768 1.81023391 26.71775768 3 36 C4.92064793 37.5899433 4.92064793 37.5899433 7 38 C6.67 39.32 6.34 40.64 6 42 C3 41 0 40 -3 39 C-2.86287598 38.45359863 -2.72575195 37.90719727 -2.58447266 37.34423828 C-0.81084717 29.54314428 -0.56490873 21.85116667 -0.375 13.875 C-0.33671699 12.5234152 -0.29765973 11.17185209 -0.2578125 9.8203125 C-0.16428946 6.54700609 -0.07853802 3.27369443 0 0 Z " fill="#1F7A81" transform="translate(253,102)"/>
<path d="M0 0 C0 3.3 0 6.6 0 10 C-0.33 8.68 -0.66 7.36 -1 6 C-10.20692462 5.60195155 -10.20692462 5.60195155 -19 8 C-19 7.01 -19 6.02 -19 5 C-16.70370006 3.85185003 -14.92301914 3.69230191 -12.375 3.4375 C-11.55773437 3.35371094 -10.74046875 3.26992187 -9.8984375 3.18359375 C-8.95871094 3.09271484 -8.95871094 3.09271484 -8 3 C-9.73956658 1.26043342 -12.1936622 1.62809614 -14.5625 1.4375 C-15.57441406 1.35371094 -16.58632812 1.26992187 -17.62890625 1.18359375 C-18.80259766 1.09271484 -18.80259766 1.09271484 -20 1 C-20 0.67 -20 0.34 -20 0 C-13.26188501 -1.41030314 -6.80977041 -0.66561666 0 0 Z " fill="#78AB72" transform="translate(218,112)"/>
<path d="M0 0 C0.99 0 1.98 0 3 0 C4.60546875 1.609375 4.60546875 1.609375 6.1875 3.75 C6.71730469 4.44609375 7.24710937 5.1421875 7.79296875 5.859375 C9 8 9 8 9 12 C10.32 12.33 11.64 12.66 13 13 C12 14 12 14 9.4375 14.0625 C8.633125 14.041875 7.82875 14.02125 7 14 C6.67 13.01 6.34 12.02 6 11 C4.35 11.33 2.7 11.66 1 12 C-0.3271261 8.0186217 -0.06915913 4.14954773 0 0 Z " fill="#148389" transform="translate(292,128)"/>
<path d="M0 0 C1.87109375 0.640625 1.87109375 0.640625 4 2 C5.16015625 4.609375 5.16015625 4.609375 6.0625 7.75 C7.09482048 11.15990898 8.06601726 14.12958944 9.6875 17.3125 C11.25926793 20.53088195 11.64558811 23.45588114 12 27 C13.32 27.33 14.64 27.66 16 28 C15.67 29.32 15.34 30.64 15 32 C14.01 32 13.02 32 12 32 C11.7733667 31.43079834 11.5467334 30.86159668 11.31323242 30.27514648 C10.2722561 27.66222426 9.22988798 25.04985937 8.1875 22.4375 C7.83107422 21.54224609 7.47464844 20.64699219 7.10742188 19.72460938 C5.54288402 15.80608797 3.97083514 11.8977322 2.28125 8.03125 C1.13248031 5.31342902 0.44037104 2.90644885 0 0 Z " fill="#809F40" transform="translate(72,100)"/>
<path d="M0 0 C0 0.33 0 0.66 0 1 C-2.64 1.33 -5.28 1.66 -8 2 C-7.82597656 2.87785156 -7.65195313 3.75570312 -7.47265625 4.66015625 C-6.62981713 10.56003008 -7.15605819 16.50781228 -7.4375 22.4375 C-7.48970703 23.64599609 -7.54191406 24.85449219 -7.59570312 26.09960938 C-7.72470754 29.06671084 -7.8596435 32.03341748 -8 35 C-8.33 35 -8.66 35 -9 35 C-9.00410889 34.27409668 -9.00821777 33.54819336 -9.01245117 32.80029297 C-9.0454749 29.49105084 -9.11613026 26.18362816 -9.1875 22.875 C-9.19620117 21.16183594 -9.19620117 21.16183594 -9.20507812 19.4140625 C-9.26501607 12.28202181 -9.26501607 12.28202181 -12.55078125 6.1953125 C-13.76314453 5.10863281 -13.76314453 5.10863281 -15 4 C-14 2 -14 2 -11.85546875 1.11328125 C-10.97503906 0.84902344 -10.09460938 0.58476563 -9.1875 0.3125 C-8.31480469 0.04050781 -7.44210938 -0.23148437 -6.54296875 -0.51171875 C-3.93126166 -1.01319861 -2.48283616 -0.86233704 0 0 Z " fill="#9FBF6F" transform="translate(132,97)"/>
<path d="M0 0 C1.65 0 3.3 0 5 0 C5 1.65 5 3.3 5 5 C5.66 4.67 6.32 4.34 7 4 C7 4.66 7 5.32 7 6 C7.66 6 8.32 6 9 6 C7.45730076 10.72065967 5.92205381 15.41664092 4 20 C3.67 20 3.34 20 3 20 C2.32741333 17.66836622 1.66152556 15.3347961 1 13 C0.7525 12.34 0.505 11.68 0.25 11 C-0.15293365 7.7765308 1.00594751 5.04063114 2 2 C1.34 1.34 0.68 0.68 0 0 Z " fill="#8FB84C" transform="translate(100,82)"/>
<path d="M0 0 C0.5625 1.9375 0.5625 1.9375 1 4 C0.67 4.33 0.34 4.66 0 5 C0.66 5.33 1.32 5.66 2 6 C2 5.34 2 4.68 2 4 C2.99 4.33 3.98 4.66 5 5 C5 6.32 5 7.64 5 9 C5.33 7.35 5.66 5.7 6 4 C6.66 4 7.32 4 8 4 C8 7.63 8 11.26 8 15 C6.68 15 5.36 15 4 15 C3.67 14.34 3.34 13.68 3 13 C2.34 13 1.68 13 1 13 C0.731875 12.4225 0.46375 11.845 0.1875 11.25 C-1.01719859 8.9674132 -2.40798115 7.0262058 -4 5 C-2.68 3.35 -1.36 1.7 0 0 Z " fill="#68AC59" transform="translate(189,117)"/>
<path d="M0 0 C2.8125 0.125 2.8125 0.125 6 1 C8.0798613 3.92480496 9.17596802 5.69783667 8.6875 9.3125 C6.3136656 11.6863344 4.13250006 11.7459283 0.875 12.1171875 C-1 12 -1 12 -3 10 C-2.01 10 -1.02 10 0 10 C1.07318928 6.78043217 0.870689 6.09578311 0 3 C0 2.01 0 1.02 0 0 Z " fill="#89B145" transform="translate(126,79)"/>
<path d="M0 0 C3 1 3 1 6 3 C6.99 2.67 7.98 2.34 9 2 C9.66 2.66 10.32 3.32 11 4 C9.68 4 8.36 4 7 4 C7.33 6.31 7.66 8.62 8 11 C7.195625 11.12375 6.39125 11.2475 5.5625 11.375 C4.716875 11.58125 3.87125 11.7875 3 12 C2.67 12.66 2.34 13.32 2 14 C1.01 14 0.02 14 -1 14 C-0.649375 13.278125 -0.29875 12.55625 0.0625 11.8125 C1.12571915 8.62284254 0.82017295 7.19867449 0 4 C0 2.68 0 1.36 0 0 Z " fill="#A1B21E" transform="translate(195,46)"/>
<path d="M0 0 C-0.99 0.33 -1.98 0.66 -3 1 C-3 1.66 -3 2.32 -3 3 C-8.445 3.495 -8.445 3.495 -14 4 C-14 6.97 -14 9.94 -14 13 C-13.01 13.33 -12.02 13.66 -11 14 C-11.66 14.66 -12.32 15.32 -13 16 C-13.99 15.67 -14.98 15.34 -16 15 C-17.35439668 12.29120665 -17.06501451 9.99066732 -17 7 C-18.32 7 -19.64 7 -21 7 C-20.67 6.01 -20.34 5.02 -20 4 C-18.35 4 -16.7 4 -15 4 C-15 3.34 -15 2.68 -15 2 C-10.13948404 -0.59227518 -5.34728867 -0.18689553 0 0 Z " fill="#168486" transform="translate(316,97)"/>
<path d="M0 0 C0.33 0 0.66 0 1 0 C1 1.98 1 3.96 1 6 C1.66 6 2.32 6 3 6 C3.05534912 6.56509277 3.11069824 7.13018555 3.16772461 7.71240234 C3.42024372 10.26702332 3.67879723 12.82099815 3.9375 15.375 C4.02451172 16.26445313 4.11152344 17.15390625 4.20117188 18.0703125 C4.28818359 18.92109375 4.37519531 19.771875 4.46484375 20.6484375 C4.543396 21.43395996 4.62194824 22.21948242 4.70288086 23.02880859 C4.90696298 25.07134803 4.90696298 25.07134803 6 27 C6.99 27 7.98 27 9 27 C9 25.35 9 23.7 9 22 C9.66 22 10.32 22 11 22 C11.125 24.875 11.125 24.875 11 28 C10.34 28.66 9.68 29.32 9 30 C6.375 29.625 6.375 29.625 4 29 C0.91093466 19.73280399 -0.38998219 9.74955484 0 0 Z " fill="#D8BF6D" transform="translate(184,52)"/>
<path d="M0 0 C0.34937193 8.25552919 -0.05602712 15.2370239 -3 23 C-3.33 23 -3.66 23 -4 23 C-3.03644647 9.3667426 -3.03644647 9.3667426 -2 3 C-2.61875 3.309375 -3.2375 3.61875 -3.875 3.9375 C-7.86290072 5.93145036 -10.47665981 6.08376556 -15 6 C-5.56937799 -0.28708134 -5.56937799 -0.28708134 0 0 Z " fill="#B6C774" transform="translate(232,25)"/>
<path d="M0 0 C2.97 0 5.94 0 9 0 C8.67 11.55 8.34 23.1 8 35 C7.67 35 7.34 35 7 35 C6.67 25.43 6.34 15.86 6 6 C4.02 5.34 2.04 4.68 0 4 C0 2.68 0 1.36 0 0 Z " fill="#72A635" transform="translate(144,98)"/>
<path d="M0 0 C-0.33 0.99 -0.66 1.98 -1 3 C-3.31 3.33 -5.62 3.66 -8 4 C-8 5.32 -8 6.64 -8 8 C-7.34 8 -6.68 8 -6 8 C-6.33 10.31 -6.66 12.62 -7 15 C-7.28875 14.401875 -7.5775 13.80375 -7.875 13.1875 C-10.05332716 8.95186386 -11.54038031 7.52565937 -16 6 C-15.67 5.01 -15.34 4.02 -15 3 C-12.63671875 2.05078125 -12.63671875 2.05078125 -9.6875 1.3125 C-8.72199219 1.06113281 -7.75648438 0.80976562 -6.76171875 0.55078125 C-4 0 -4 0 0 0 Z " fill="#168284" transform="translate(280,96)"/>
<path d="M0 0 C1.66611905 -0.042721 3.33382885 -0.04063832 5 0 C5.33 0.33 5.66 0.66 6 1 C8.32817964 1.36760731 10.6618385 1.70241581 13 2 C13 2.99 13 3.98 13 5 C8.35919889 6.5469337 5.17181861 7.08983771 0.25 6.5625 C-0.73484375 6.46066406 -1.7196875 6.35882813 -2.734375 6.25390625 C-3.48203125 6.17011719 -4.2296875 6.08632812 -5 6 C-4.175 5.38125 -3.35 4.7625 -2.5 4.125 C-1.2625 3.073125 -1.2625 3.073125 0 2 C0 1.34 0 0.68 0 0 Z " fill="#3F9E4A" transform="translate(203,96)"/>
<path d="M0 0 C1.32 0 2.64 0 4 0 C4 0.66 4 1.32 4 2 C8.29 2 12.58 2 17 2 C17 1.34 17 0.68 17 0 C19.475 0.495 19.475 0.495 22 1 C21.67 2.32 21.34 3.64 21 5 C14.07 5 7.14 5 0 5 C-0.33 3.68 -0.66 2.36 -1 1 C-0.67 0.67 -0.34 0.34 0 0 Z " fill="#8DAF5F" transform="translate(118,139)"/>
<path d="M0 0 C4.38332057 0.82187261 8.67940177 1.90154282 13 3 C13 4.32 13 5.64 13 7 C11.68 7 10.36 7 9 7 C9 7.66 9 8.32 9 9 C6.03 9 3.06 9 0 9 C0.99 7.68 1.98 6.36 3 5 C2.01 3.35 1.02 1.7 0 0 Z " fill="#73AA33" transform="translate(160,134)"/>
<path d="M0 0 C0.33 0 0.66 0 1 0 C1 6.6 1 13.2 1 20 C0.67 20 0.34 20 0 20 C-0.33 26.6 -0.66 33.2 -1 40 C-1.33 40 -1.66 40 -2 40 C-2.04948633 34.94630355 -2.08576045 29.89274858 -2.10986328 24.83886719 C-2.1199127 23.12009219 -2.13355445 21.40133425 -2.15087891 19.68261719 C-2.17517391 17.21024359 -2.18649368 14.73809631 -2.1953125 12.265625 C-2.21079636 11.11540863 -2.21079636 11.11540863 -2.22659302 9.94195557 C-2.22739012 6.14043233 -2.14509572 3.22135482 0 0 Z " fill="#469EA0" transform="translate(254,91)"/>
<path d="M0 0 C3 1 3 1 4 3 C3.984375 5.09375 3.984375 5.09375 3.75 7.5 C3.68296875 8.2940625 3.6159375 9.088125 3.546875 9.90625 C3 12 3 12 0 14 C-2.09972674 10.58794404 -2.33083127 7.9699753 -2 4 C-1 1.625 -1 1.625 0 0 Z " fill="#80AC3A" transform="translate(99,94)"/>
<path d="M0 0 C0.66 0 1.32 0 2 0 C2.33 2.31 2.66 4.62 3 7 C3.66 7 4.32 7 5 7 C5.66 8.32 6.32 9.64 7 11 C6.01 11.66 5.02 12.32 4 13 C3.42251197 14.96361864 3.42251197 14.96361864 3.3125 17.125 C3.209375 18.40375 3.10625 19.6825 3 21 C2.34 21 1.68 21 1 21 C0.67 14.07 0.34 7.14 0 0 Z " fill="#3C9352" transform="translate(217,110)"/>
<path d="M0 0 C2.50357861 0.8345262 4.66785852 1.79371992 7 3 C7 3.66 7 4.32 7 5 C6.360625 5.268125 5.72125 5.53625 5.0625 5.8125 C2.66868314 6.88667752 2.66868314 6.88667752 2 10 C1.67 10.33 1.34 10.66 1 11 C1.99 11 2.98 11 4 11 C2.74458443 13.51083114 1.49936512 13.87125446 -1 15 C-1.02693575 12.87506859 -1.04636628 10.75004088 -1.0625 8.625 C-1.07410156 7.44164063 -1.08570313 6.25828125 -1.09765625 5.0390625 C-1 2 -1 2 0 0 Z " fill="#B2BE36" transform="translate(195,59)"/>
<path d="M0 0 C0.66 0.33 1.32 0.66 2 1 C2.44921875 4.1328125 2.44921875 4.1328125 2.6875 8.125 C2.77386719 9.42695312 2.86023438 10.72890625 2.94921875 12.0703125 C2.99881389 15.90821319 2.65025964 19.23533894 2 23 C-0.75538584 20.24461416 -0.86677318 17.7485183 -1 14 C-0.78526771 9.32190362 -0.42044945 4.66375468 0 0 Z " fill="#0A6A6D" transform="translate(252,74)"/>
<path d="M0 0 C-1 1 -1 1 -3.06640625 1.09765625 C-3.89011719 1.08605469 -4.71382812 1.07445312 -5.5625 1.0625 C-6.38878906 1.05347656 -7.21507812 1.04445312 -8.06640625 1.03515625 C-8.70449219 1.02355469 -9.34257812 1.01195312 -10 1 C-10 2.32 -10 3.64 -10 5 C-5.71 5 -1.42 5 3 5 C2.67 5.66 2.34 6.32 2 7 C-0.12472576 7.05386629 -2.24983652 7.09273071 -4.375 7.125 C-6.15003906 7.15980469 -6.15003906 7.15980469 -7.9609375 7.1953125 C-11 7 -11 7 -13 5 C-12.46428571 1.46428571 -12.46428571 1.46428571 -11 0 C-9.52887696 -0.25910191 -8.04698431 -0.45873776 -6.5625 -0.625 C-5.35787109 -0.76808594 -5.35787109 -0.76808594 -4.12890625 -0.9140625 C-2 -1 -2 -1 0 0 Z " fill="#D8B76A" transform="translate(157,49)"/>
<path d="M0 0 C2.31 0.33 4.62 0.66 7 1 C7.33 2.32 7.66 3.64 8 5 C6.35 5.33 4.7 5.66 3 6 C3.020625 6.94875 3.04125 7.8975 3.0625 8.875 C3 12 3 12 2 14 C1.34 13.67 0.68 13.34 0 13 C0 8.71 0 4.42 0 0 Z " fill="#CE9C18" transform="translate(175,30)"/>
<path d="M0 0 C4.875 4.75 4.875 4.75 6 7 C5.0625 9.125 5.0625 9.125 4 11 C1.11562221 9.70700306 -0.87219421 8.34058637 -3 6 C-2.34 6 -1.68 6 -1 6 C-1.33 4.68 -1.66 3.36 -2 2 C-1.34 2 -0.68 2 0 2 C0 1.34 0 0.68 0 0 Z " fill="#66AB54" transform="translate(189,132)"/>
<path d="M0 0 C3.96 0 7.92 0 12 0 C12.33 1.32 12.66 2.64 13 4 C12 5 12 5 9.4375 5.0625 C8.2309375 5.0315625 8.2309375 5.0315625 7 5 C6.34 6.32 5.68 7.64 5 9 C5.33 6.69 5.66 4.38 6 2 C3.03 1.505 3.03 1.505 0 1 C0 0.67 0 0.34 0 0 Z " fill="#9FC067" transform="translate(104,78)"/>
<path d="M0 0 C0.66 0 1.32 0 2 0 C2 0.99 2 1.98 2 3 C2.66 3 3.32 3 4 3 C4.33 2.34 4.66 1.68 5 1 C5 4 5 4 4 6 C4.66 6.33 5.32 6.66 6 7 C6 8.65 6 10.3 6 12 C4.35 11.67 2.7 11.34 1 11 C-0.28317892 7.15046324 -0.06643637 4.05261865 0 0 Z " fill="#CC991E" transform="translate(167,46)"/>
<path d="M0 0 C0.33 0 0.66 0 1 0 C1.66 4.95 2.32 9.9 3 15 C3.66 15 4.32 15 5 15 C5 17.31 5 19.62 5 22 C2 21 2 21 0.8203125 19.484375 C-0.41264291 15.75028147 -0.20913432 12.15253785 -0.125 8.25 C-0.11597656 7.45722656 -0.10695312 6.66445313 -0.09765625 5.84765625 C-0.07417012 3.89830719 -0.03830137 1.94911425 0 0 Z " fill="#D7B64B" transform="translate(186,27)"/>
<path d="M0 0 C1.65 0 3.3 0 5 0 C4.34 0.66 3.68 1.32 3 2 C2.53837573 4.43252661 2.53837573 4.43252661 2.375 7.125 C2.30023438 8.03507812 2.22546875 8.94515625 2.1484375 9.8828125 C2.09945312 10.58148438 2.05046875 11.28015625 2 12 C-0.64 12 -3.28 12 -6 12 C-6.33 13.32 -6.66 14.64 -7 16 C-7 14.02 -7 12.04 -7 10 C-4.69 10 -2.38 10 0 10 C0 6.7 0 3.4 0 0 Z " fill="#91B668" transform="translate(150,86)"/>
<path d="M0 0 C0 3.96 0 7.92 0 12 C-0.33 12 -0.66 12 -1 12 C-1.33 9.36 -1.66 6.72 -2 4 C-4.64 4 -7.28 4 -10 4 C-10.33 4.99 -10.66 5.98 -11 7 C-11 6.01 -11 5.02 -11 4 C-12.98 4.33 -14.96 4.66 -17 5 C-16.67 4.34 -16.34 3.68 -16 3 C-13.41796875 2.1484375 -13.41796875 2.1484375 -10.1875 1.375 C-9.12917969 1.11460938 -8.07085937 0.85421875 -6.98046875 0.5859375 C-4 0 -4 0 0 0 Z " fill="#519D9B" transform="translate(255,71)"/>
<path d="M0 0 C-0.020625 0.78375 -0.04125 1.5675 -0.0625 2.375 C-0.18684063 4.98114961 -0.18684063 4.98114961 1 7 C-1.97 7 -4.94 7 -8 7 C-8 4 -8 4 -6 1 C-3.88864324 0.27422112 -2.22998296 0 0 0 Z " fill="#09898E" transform="translate(248,135)"/>
<path d="M0 0 C2.31 0 4.62 0 7 0 C7 1.32 7 2.64 7 4 C7.66 4.33 8.32 4.66 9 5 C4.59085217 6.10228696 0.51617599 6.07654536 -4 6 C-1 4 -1 4 1 4 C0.67 2.68 0.34 1.36 0 0 Z " fill="#4A9947" transform="translate(201,138)"/>
<path d="M0 0 C-2.46844648 1.23422324 -4.0628099 1.06595958 -6.8125 1 C-10.35822594 0.95894963 -13.54931806 1.07981815 -17 2 C-17 2.66 -17 3.32 -17 4 C-18.32 3.67 -19.64 3.34 -21 3 C-15.24719066 -2.09534541 -6.85550399 -4.57033599 0 0 Z " fill="#579A9D" transform="translate(318,97)"/>
<path d="M0 0 C0.66 0.33 1.32 0.66 2 1 C2 1.33 2 1.66 2 2 C2.89203125 1.97679687 3.7840625 1.95359375 4.703125 1.9296875 C5.87359375 1.91164062 7.0440625 1.89359375 8.25 1.875 C9.99023438 1.84019531 9.99023438 1.84019531 11.765625 1.8046875 C14.82786046 1.9896051 16.44202751 2.39176977 19 4 C18 5 18 5 14.18359375 5.09765625 C12.60153318 5.09098089 11.01948841 5.07901875 9.4375 5.0625 C8.63119141 5.05798828 7.82488281 5.05347656 6.99414062 5.04882812 C4.99606244 5.03700518 2.99802217 5.01906914 1 5 C0.34 3.68 -0.32 2.36 -1 1 C-0.67 0.67 -0.34 0.34 0 0 Z " fill="#1F9297" transform="translate(238,139)"/>
<path d="M0 0 C0.33 0 0.66 0 1 0 C1 2.31 1 4.62 1 7 C1.66 7 2.32 7 3 7 C3 7.66 3 8.32 3 9 C4.32 9.66 5.64 10.32 7 11 C6.67 11.99 6.34 12.98 6 14 C3.36 13.34 0.72 12.68 -2 12 C-1.34 11.67 -0.68 11.34 0 11 C-0.2784375 10.2265625 -0.2784375 10.2265625 -0.5625 9.4375 C-1.15419517 6.14091261 -0.567267 3.27754265 0 0 Z " fill="#49945C" transform="translate(228,129)"/>
<path d="M0 0 C1.98 0 3.96 0 6 0 C4.68 0.33 3.36 0.66 2 1 C2 1.66 2 2.32 2 3 C2.804375 2.979375 3.60875 2.95875 4.4375 2.9375 C7 3 7 3 8 4 C8.04063832 5.66617115 8.042721 7.33388095 8 9 C7.01 9.495 7.01 9.495 6 10 C5.6596875 9.071875 5.6596875 9.071875 5.3125 8.125 C3.62070165 5.38589791 2.00755839 4.94975528 -1 4 C-0.67 2.68 -0.34 1.36 0 0 Z " fill="#8DB24C" transform="translate(49,78)"/>
<path d="M0 0 C0.99 0.33 1.98 0.66 3 1 C2.44271087 4.34373475 1.64826111 7.03312999 0 10 C-1.32 10 -2.64 10 -4 10 C-4 9.34 -4 8.68 -4 8 C-3.34 8 -2.68 8 -2 8 C-2 5.69 -2 3.38 -2 1 C-1.34 0.67 -0.68 0.34 0 0 Z " fill="#CC9D1E" transform="translate(181,16)"/>
<path d="M0 0 C0.33 0.66 0.66 1.32 1 2 C1.66 2 2.32 2 3 2 C2.14285714 10.57142857 2.14285714 10.57142857 0 14 C-1.65 14 -3.3 14 -5 14 C-5.33 13.34 -5.66 12.68 -6 12 C-3.525 12.495 -3.525 12.495 -1 13 C-1.20625 12.071875 -1.4125 11.14375 -1.625 10.1875 C-2 7 -2 7 0 4 C0 2.68 0 1.36 0 0 Z " fill="#D7B25D" transform="translate(174,45)"/>
<path d="M0 0 C0.99 0 1.98 0 3 0 C2.40072174 3.35595828 1.15377564 5.37801226 -1 8 C-3.97 7.505 -3.97 7.505 -7 7 C-7 5.68 -7 4.36 -7 3 C-4.525 3.495 -4.525 3.495 -2 4 C-1.34 2.68 -0.68 1.36 0 0 Z " fill="#98B25E" transform="translate(86,137)"/>
<path d="M0 0 C1.93681161 -0.08107583 3.8745934 -0.13922475 5.8125 -0.1875 C6.89144531 -0.22230469 7.97039062 -0.25710937 9.08203125 -0.29296875 C12 0 12 0 13.88671875 1.51171875 C14.25410156 2.00285156 14.62148437 2.49398437 15 3 C12.87506859 3.02693575 10.75004088 3.04636628 8.625 3.0625 C7.44164062 3.07410156 6.25828125 3.08570312 5.0390625 3.09765625 C2 3 2 3 0 2 C0 1.34 0 0.68 0 0 Z " fill="#4D9F45" transform="translate(197,113)"/>
<path d="M0 0 C0.33 0.99 0.66 1.98 1 3 C-1.297221 4.74271938 -3.59866729 6.39911152 -6 8 C-6.33 7.01 -6.66 6.02 -7 5 C-7.99 4.34 -8.98 3.68 -10 3 C-9.01 3 -8.02 3 -7 3 C-7 2.34 -7 1.68 -7 1 C-4 0 -4 0 0 0 Z " fill="#6EAF67" transform="translate(203,96)"/>
<path d="M0 0 C-0.33 0.99 -0.66 1.98 -1 3 C-1.66 3 -2.32 3 -3 3 C-3 3.99 -3 4.98 -3 6 C-3.66 6 -4.32 6 -5 6 C-5.66 7.65 -6.32 9.3 -7 11 C-8.32 10.67 -9.64 10.34 -11 10 C-9.5249453 5.5748359 -5.06750127 0 0 0 Z " fill="#A2AB41" transform="translate(201,38)"/>
<path d="M0 0 C1.32 0.33 2.64 0.66 4 1 C-1.64524422 6.80205656 -1.64524422 6.80205656 -5 9 C-5.66 9 -6.32 9 -7 9 C-7 8.34 -7 7.68 -7 7 C-6.01 7 -5.02 7 -4 7 C-4 6.34 -4 5.68 -4 5 C-4.66 4.34 -5.32 3.68 -6 3 C-5.195625 2.87625 -4.39125 2.7525 -3.5625 2.625 C-2.716875 2.41875 -1.87125 2.2125 -1 2 C-0.67 1.34 -0.34 0.68 0 0 Z " fill="#B6C456" transform="translate(219,56)"/>
<path d="M0 0 C3.64775386 3.88309282 4.58525633 6.71201818 5 12 C3.68 12.33 2.36 12.66 1 13 C1.33 10.69 1.66 8.38 2 6 C1.34 6 0.68 6 0 6 C0 4.02 0 2.04 0 0 Z " fill="#C0B328" transform="translate(190,53)"/>
<path d="M0 0 C0.66 0 1.32 0 2 0 C2 2.31 2 4.62 2 7 C2.99 7.33 3.98 7.66 5 8 C4.34 8 3.68 8 3 8 C3.33 9.32 3.66 10.64 4 12 C1 11 1 11 -0.1875 8.75 C-1.00525547 5.98221224 -1.23885231 3.86622776 -1 1 C-0.67 0.67 -0.34 0.34 0 0 Z " fill="#639A49" transform="translate(184,126)"/>
<path d="M0 0 C2.02350324 3.03525486 2.32124018 4.19426202 2.625 7.6875 C2.69976562 8.49574219 2.77453125 9.30398437 2.8515625 10.13671875 C2.90054687 10.75160156 2.94953125 11.36648437 3 12 C1.68 12 0.36 12 -1 12 C-1.02712066 10.56260487 -1.04645067 9.12506137 -1.0625 7.6875 C-1.07410156 6.88699219 -1.08570313 6.08648437 -1.09765625 5.26171875 C-1 3 -1 3 0 0 Z " fill="#128389" transform="translate(295,105)"/>
<path d="M0 0 C2.8125 0.125 2.8125 0.125 6 1 C7.875 4.0625 7.875 4.0625 9 7 C7.35 7 5.7 7 4 7 C3.34 5.68 2.68 4.36 2 3 C1.34 3 0.68 3 0 3 C0 2.01 0 1.02 0 0 Z " fill="#81B52D" transform="translate(126,79)"/>
<path d="M0 0 C0 0.99 0 1.98 0 3 C0.99 2.67 1.98 2.34 3 2 C3.5534764 4.07553648 4 5.84365964 4 8 C1.525 7.01 1.525 7.01 -1 6 C-1 5.34 -1 4.68 -1 4 C-2.65 3.67 -4.3 3.34 -6 3 C-4.60722783 0.21445565 -3.01148006 0 0 0 Z " fill="#40934B" transform="translate(221,136)"/>
<path d="M0 0 C0.33 0 0.66 0 1 0 C1.33 7.92 1.66 15.84 2 24 C2.66 24 3.32 24 4 24 C3.67 24.66 3.34 25.32 3 26 C2.01 25.67 1.02 25.34 0 25 C-1.19009603 22.00197798 -1.05359859 19.1989076 -0.87890625 16.015625 C-0.83056641 15.08105469 -0.78222656 14.14648438 -0.73242188 13.18359375 C-0.67634766 12.21550781 -0.62027344 11.24742188 -0.5625 10.25 C-0.51029297 9.26644531 -0.45808594 8.28289062 -0.40429688 7.26953125 C-0.27488563 4.84601151 -0.13993095 2.42293136 0 0 Z " fill="#8DAD6D" transform="translate(160,109)"/>
<path d="M0 0 C0.4125 0.639375 0.825 1.27875 1.25 1.9375 C3.17810487 4.20990931 4.11424181 4.60196439 7 5 C7.33 4.34 7.66 3.68 8 3 C8.33 5.64 8.66 8.28 9 11 C7.5 9.625 7.5 9.625 6 8 C6 7.34 6 6.68 6 6 C4.35 6.66 2.7 7.32 1 8 C0.34 5.69 -0.32 3.38 -1 1 C-0.67 0.67 -0.34 0.34 0 0 Z " fill="#D8B551" transform="translate(159,46)"/>
<path d="M0 0 C0.33 0.99 0.66 1.98 1 3 C6.52967941 3.71033431 11.49983036 4.30267176 17 3 C16.01 3.495 16.01 3.495 15 4 C15 4.66 15 5.32 15 6 C11.99032056 7.00322648 10.5759723 7.03098357 7.5 6.6875 C6.7265625 6.60886719 5.953125 6.53023437 5.15625 6.44921875 C3 6 3 6 0 4 C0 2.68 0 1.36 0 0 Z " fill="#6EAA6F" transform="translate(197,132)"/>
<path d="M0 0 C1.16063604 4.25566547 0.76173392 7.6835078 0 12 C-0.33 12 -0.66 12 -1 12 C-1 9.36 -1 6.72 -1 4 C-2.65 4 -4.3 4 -6 4 C-6 3.01 -6 2.02 -6 1 C-4 0 -4 0 0 0 Z " fill="#499791" transform="translate(244,75)"/>
<path d="M0 0 C1.13732426 3.40401948 0.83989957 5.77456664 0.0625 9.25 C-0.13214844 10.14203125 -0.32679688 11.0340625 -0.52734375 11.953125 C-0.68332031 12.62859375 -0.83929688 13.3040625 -1 14 C-1.33 14 -1.66 14 -2 14 C-2.144375 12.88625 -2.28875 11.7725 -2.4375 10.625 C-2.78372035 7.17857953 -2.78372035 7.17857953 -4 5 C-3.75 2.9375 -3.75 2.9375 -3 1 C-2.01 0.67 -1.02 0.34 0 0 Z " fill="#BEAA18" transform="translate(194,65)"/>
<path d="M0 0 C10.55808656 2.89066059 10.55808656 2.89066059 15 6 C11.01508155 7.32830615 9.59951452 6.23204404 5.8125 4.5625 C4.72582031 4.08941406 3.63914062 3.61632812 2.51953125 3.12890625 C1.68808594 2.75636719 0.85664063 2.38382812 0 2 C0 1.34 0 0.68 0 0 Z " fill="#46979C" transform="translate(309,113)"/>
<path d="M0 0 C-1.45454545 3.75757576 -1.45454545 3.75757576 -3.6875 4.75 C-6.80146062 5.08664439 -9.87107191 5.06017169 -13 5 C-8.58449682 2.05633121 -5.38909875 0 0 0 Z " fill="#ADBF57" transform="translate(230,26)"/>
<path d="M0 0 C0 2.31 0 4.62 0 7 C-0.66 5.68 -1.32 4.36 -2 3 C-3.32 3 -4.64 3 -6 3 C-6 5.31 -6 7.62 -6 10 C-6.66 10 -7.32 10 -8 10 C-7.88637738 8.5199159 -7.75877092 7.04089926 -7.625 5.5625 C-7.55539063 4.73878906 -7.48578125 3.91507813 -7.4140625 3.06640625 C-7.27742187 2.38449219 -7.14078125 1.70257813 -7 1 C-4.53721199 -0.231394 -2.7204945 -0.07159196 0 0 Z " fill="#D1AE63" transform="translate(185,14)"/>
<path d="M0 0 C0.99 0 1.98 0 3 0 C2.938125 0.78375 2.87625 1.5675 2.8125 2.375 C2.874375 3.24125 2.93625 4.1075 3 5 C3.99 5.66 4.98 6.32 6 7 C2.26840331 8.24386556 -0.18015204 7.77811718 -4 7 C-4.33 6.34 -4.66 5.68 -5 5 C-3.68 5.33 -2.36 5.66 -1 6 C-0.67 4.02 -0.34 2.04 0 0 Z " fill="#329193" transform="translate(274,83)"/>
<path d="M0 0 C0.66 0 1.32 0 2 0 C2.125 2.875 2.125 2.875 2 6 C1.34 6.66 0.68 7.32 0 8 C-2.625 7.625 -2.625 7.625 -5 7 C-4.67 5.68 -4.34 4.36 -4 3 C-3.67 3.66 -3.34 4.32 -3 5 C-2.01 5 -1.02 5 0 5 C0 3.35 0 1.7 0 0 Z " fill="#D1B860" transform="translate(193,74)"/>
<path d="M0 0 C0.33 1.32 0.66 2.64 1 4 C2.65 4.33 4.3 4.66 6 5 C5.34 6.65 4.68 8.3 4 10 C3.67 9.01 3.34 8.02 3 7 C1.02 7.33 -0.96 7.66 -3 8 C-2.34 7.67 -1.68 7.34 -1 7 C-0.59270772 4.67843403 -0.25561323 2.3431213 0 0 Z " fill="#9EC15A" transform="translate(89,118)"/>
<path d="M0 0 C0.268125 0.598125 0.53625 1.19625 0.8125 1.8125 C1.86047309 4.05569277 1.86047309 4.05569277 3.6875 5.4375 C4.120625 5.953125 4.55375 6.46875 5 7 C4.6875 9.6875 4.6875 9.6875 4 12 C2.0625 11.375 2.0625 11.375 0 10 C-1.02699061 6.36603322 -1.23967448 3.58128182 0 0 Z " fill="#9DC059" transform="translate(96,100)"/>
<path d="M0 0 C1.74965358 -0.05429959 3.49979787 -0.09292823 5.25 -0.125 C6.22453125 -0.14820312 7.1990625 -0.17140625 8.203125 -0.1953125 C11.0196498 0.00137219 12.60949036 0.55431084 15 2 C14 3 14 3 10.3125 3.1875 C6.5586147 3.15368121 3.50557404 2.40222961 0 1 C0 0.67 0 0.34 0 0 Z " fill="#5E9F6D" transform="translate(203,95)"/>
<path d="M0 0 C-0.33 0.66 -0.66 1.32 -1 2 C-2.32 2 -3.64 2 -5 2 C-5.33 2.99 -5.66 3.98 -6 5 C-6.99 5.495 -6.99 5.495 -8 6 C-9.13350534 8.01669827 -9.13350534 8.01669827 -10 10 C-10.36768802 4.48467967 -10.36768802 4.48467967 -8.625 2.1875 C-5.62849981 -0.00225014 -3.66209459 -0.09637091 0 0 Z " fill="#589C9C" transform="translate(278,77)"/>
<path d="M0 0 C3.5 0.25 3.5 0.25 5.5 2.25 C5.89764263 4.23821313 6.23775349 6.23944339 6.5 8.25 C5 6.875 5 6.875 3.5 5.25 C3.5 4.59 3.5 3.93 3.5 3.25 C0.53 2.92 -2.44 2.59 -5.5 2.25 C-3.5 0.25 -3.5 0.25 0 0 Z " fill="#90A95C" transform="translate(128.5,76.75)"/>
<path d="M0 0 C0.33 0.99 0.66 1.98 1 3 C1.66 3.66 2.32 4.32 3 5 C2.34 5 1.68 5 1 5 C0.67 5.66 0.34 6.32 0 7 C-1.65 6.67 -3.3 6.34 -5 6 C-4.75 4.125 -4.75 4.125 -4 2 C-1.9375 0.75 -1.9375 0.75 0 0 Z " fill="#3D8E92" transform="translate(269,137)"/>
<path d="M0 0 C0.66 0 1.32 0 2 0 C2 3.63 2 7.26 2 11 C1.01 11.33 0.02 11.66 -1 12 C-2.36884358 7.48281619 -1.47075246 4.41225737 0 0 Z " fill="#6BA763" transform="translate(195,121)"/>
<path d="M0 0 C0 3.3 0 6.6 0 10 C-0.33 8.68 -0.66 7.36 -1 6 C-2.31647119 5.30062468 -3.65022151 4.63270867 -5 4 C-5.33 3.01 -5.66 2.02 -6 1 C-3.92446352 0.4465236 -2.15634036 0 0 0 Z " fill="#67B066" transform="translate(218,112)"/>
<path d="M0 0 C0 2.31 0 4.62 0 7 C-1.65 6.67 -3.3 6.34 -5 6 C-5 4.35 -5 2.7 -5 1 C-1.125 0 -1.125 0 0 0 Z " fill="#7DA82D" transform="translate(95,116)"/>
<path d="M0 0 C1.32 0.33 2.64 0.66 4 1 C3.67 4.96 3.34 8.92 3 13 C2.67 13 2.34 13 2 13 C1.93941406 12.39671875 1.87882813 11.7934375 1.81640625 11.171875 C1.69072266 9.97304687 1.69072266 9.97304687 1.5625 8.75 C1.48128906 7.96109375 1.40007812 7.1721875 1.31640625 6.359375 C1.02365007 4.17635361 0.57935581 2.1226818 0 0 Z " fill="#3A8E5B" transform="translate(225,113)"/>
<path d="M0 0 C-0.33 0.66 -0.66 1.32 -1 2 C-1.94875 1.979375 -2.8975 1.95875 -3.875 1.9375 C-6.90666283 1.77448174 -6.90666283 1.77448174 -9 3 C-9.99 2.67 -10.98 2.34 -12 2 C-12 1.34 -12 0.68 -12 0 C-7.44729118 -2.48329572 -4.775353 -1.68541871 0 0 Z " fill="#2F9196" transform="translate(325,98)"/>
<path d="M0 0 C1 3 1 3 1 5 C1.66 5.33 2.32 5.66 3 6 C2.34 6 1.68 6 1 6 C1 6.66 1 7.32 1 8 C-0.32 7.67 -1.64 7.34 -3 7 C-3.1875 4.625 -3.1875 4.625 -3 2 C-2.01 1.34 -1.02 0.68 0 0 Z " fill="#13827F" transform="translate(272,81)"/>
<path d="M0 0 C3.3 0 6.6 0 10 0 C9.01 0.33 8.02 0.66 7 1 C7 1.66 7 2.32 7 3 C4.36 3 1.72 3 -1 3 C-0.67 2.01 -0.34 1.02 0 0 Z " fill="#067F7D" transform="translate(306,97)"/>
<path d="M0 0 C1.65 0 3.3 0 5 0 C4.67 1.32 4.34 2.64 4 4 C4.99 4.33 5.98 4.66 7 5 C5.02 5.99 5.02 5.99 3 7 C3 6.34 3 5.68 3 5 C1.68 4.34 0.36 3.68 -1 3 C-0.67 2.01 -0.34 1.02 0 0 Z " fill="#58A96A" transform="translate(212,100)"/>
<path d="M0 0 C4.29 0 8.58 0 13 0 C13.33 0.99 13.66 1.98 14 3 C13.01 3.99 12.02 4.98 11 6 C10.67 5.34 10.34 4.68 10 4 C10.33 3.01 10.66 2.02 11 1 C7.37 1 3.74 1 0 1 C0 0.67 0 0.34 0 0 Z " fill="#B6CD82" transform="translate(58,78)"/>
<path d="M0 0 C3.96 0 7.92 0 12 0 C12 0.66 12 1.32 12 2 C7.31034294 3.11658501 4.46236469 2.80619523 0 1 C0 0.67 0 0.34 0 0 Z " fill="#97BB73" transform="translate(162,96)"/>
<path d="M0 0 C1.65 0 3.3 0 5 0 C5.33 0.99 5.66 1.98 6 3 C8.01508358 3.73323796 8.01508358 3.73323796 10 4 C3.375 4.25 3.375 4.25 0 2 C0 1.34 0 0.68 0 0 Z " fill="#82A64A" transform="translate(154,140)"/>
<path d="M0 0 C0.99 0.33 1.98 0.66 3 1 C3.33 1.99 3.66 2.98 4 4 C2.35 5.32 0.7 6.64 -1 8 C-0.979375 7.21625 -0.95875 6.4325 -0.9375 5.625 C-0.81315937 3.01885039 -0.81315937 3.01885039 -2 1 C-1.34 0.67 -0.68 0.34 0 0 Z " fill="#8EAE6C" transform="translate(177,133)"/>
<path d="M0 0 C0.66 0 1.32 0 2 0 C2.17835515 4.54805635 1.99785435 7.8794254 0 12 C-0.66 10.68 -1.32 9.36 -2 8 C-1.34 8 -0.68 8 0 8 C0 5.36 0 2.72 0 0 Z " fill="#439197" transform="translate(327,125)"/>
<path d="M0 0 C0.125 2.875 0.125 2.875 0 6 C-0.66 6.66 -1.32 7.32 -2 8 C-2 6.68 -2 5.36 -2 4 C-3.32 3.34 -4.64 2.68 -6 2 C-2.25 0 -2.25 0 0 0 Z " fill="#93B936" transform="translate(92,125)"/>
<path d="M0 0 C1.65 1.65 3.3 3.3 5 5 C2 7 2 7 -1 7 C-2 4 -2 4 -1.0625 1.8125 C-0.5365625 0.9153125 -0.5365625 0.9153125 0 0 Z " fill="#57A97A" transform="translate(221,98)"/>
<path d="M0 0 C1.32 0 2.64 0 4 0 C4 3.96 4 7.92 4 12 C3.67 12 3.34 12 3 12 C2.8046875 9.94921875 2.609375 7.8984375 2.4140625 5.84765625 C2.27742187 5.23792969 2.14078125 4.62820312 2 4 C1.34 3.67 0.68 3.34 0 3 C0 2.01 0 1.02 0 0 Z " fill="#95BCBA" transform="translate(251,71)"/>
<path d="M0 0 C1.65 0 3.3 0 5 0 C5.33 0.99 5.66 1.98 6 3 C6.66 3.33 7.32 3.66 8 4 C5.3333581 5.33332095 3.83319697 4.67102033 1 4 C0.67 2.68 0.34 1.36 0 0 Z " fill="#ADC137" transform="translate(217,51)"/>
<path d="M0 0 C1.0625 1.8125 1.0625 1.8125 2 4 C1.67 4.99 1.34 5.98 1 7 C-0.32 6.34 -1.64 5.68 -3 5 C-1.125 1.125 -1.125 1.125 0 0 Z " fill="#52A047" transform="translate(196,132)"/>
<path d="M0 0 C0.99 0 1.98 0 3 0 C3 0.66 3 1.32 3 2 C3.66 2.33 4.32 2.66 5 3 C4.67 5.31 4.34 7.62 4 10 C2.26337666 6.77484237 1.1094072 3.48670834 0 0 Z " fill="#93B350" transform="translate(73,128)"/>
<path d="M0 0 C0 0.99 0 1.98 0 3 C-4.29 2.67 -8.58 2.34 -13 2 C-13 1.67 -13 1.34 -13 1 C-8.61414671 0.29826347 -4.44209357 -0.10834375 0 0 Z " fill="#7BB77A" transform="translate(211,111)"/>
<path d="M0 0 C0 1.98 0 3.96 0 6 C0.66 6.33 1.32 6.66 2 7 C0.1875 6.8125 0.1875 6.8125 -2 6 C-3.75 3.4375 -3.75 3.4375 -5 1 C-1.125 0 -1.125 0 0 0 Z " fill="#4D9799" transform="translate(323,103)"/>
<path d="M0 0 C-0.33 0.99 -0.66 1.98 -1 3 C-3.97 3 -6.94 3 -10 3 C-6.84916414 -0.15083586 -4.41812253 0 0 0 Z " fill="#419095" transform="translate(280,96)"/>
<path d="M0 0 C0.66 0 1.32 0 2 0 C2.33 1.65 2.66 3.3 3 5 C-1.29 4.34 -5.58 3.68 -10 3 C-10 2.67 -10 2.34 -10 2 C-9.04287109 1.90912109 -9.04287109 1.90912109 -8.06640625 1.81640625 C-6.82697266 1.69072266 -6.82697266 1.69072266 -5.5625 1.5625 C-4.73878906 1.48128906 -3.91507813 1.40007813 -3.06640625 1.31640625 C-1.01337975 1.21069185 -1.01337975 1.21069185 0 0 Z " fill="#C59522" transform="translate(157,48)"/>
<path d="M0 0 C0.99 0.33 1.98 0.66 3 1 C2.34 4.63 1.68 8.26 1 12 C0.67 12 0.34 12 0 12 C0 8.04 0 4.08 0 0 Z " fill="#D4A83D" transform="translate(177,35)"/>
<path d="M0 0 C1.32 0.66 2.64 1.32 4 2 C3.01 3.98 2.02 5.96 1 8 C0.34 7.34 -0.32 6.68 -1 6 C-0.625 2.875 -0.625 2.875 0 0 Z " fill="#D7AF46" transform="translate(176,24)"/>
<path d="M0 0 C0.66 0.33 1.32 0.66 2 1 C2 1.33 2 1.66 2 2 C4.97 2.495 4.97 2.495 8 3 C6 5 6 5 3.375 5.125 C2.59125 5.08375 1.8075 5.0425 1 5 C0.34 3.68 -0.32 2.36 -1 1 C-0.67 0.67 -0.34 0.34 0 0 Z " fill="#49918F" transform="translate(238,139)"/>
<path d="M0 0 C0.33 0.66 0.66 1.32 1 2 C1.66 2 2.32 2 3 2 C3 2.66 3 3.32 3 4 C4.32 4.66 5.64 5.32 7 6 C5 7 5 7 3 6.875 C1 6 1 6 -0.25 3.4375 C-0.4975 2.633125 -0.745 1.82875 -1 1 C-0.67 0.67 -0.34 0.34 0 0 Z " fill="#96BE9A" transform="translate(217,138)"/>
<path d="M0 0 C2.475 0.99 2.475 0.99 5 2 C4.67 3.32 4.34 4.64 4 6 C3.01 6 2.02 6 1 6 C0.67 4.02 0.34 2.04 0 0 Z " fill="#77A123" transform="translate(83,126)"/>
<path d="M0 0 C2.4375 1.375 2.4375 1.375 3.25 4 C3.311875 4.78375 3.37375 5.5675 3.4375 6.375 C3.1075 5.385 2.7775 4.395 2.4375 3.375 C1.261875 3.189375 1.261875 3.189375 0.0625 3 C-2.5625 2.375 -2.5625 2.375 -4.5625 0.375 C-2.5625 -0.625 -2.5625 -0.625 0 0 Z " fill="#63A7AB" transform="translate(315.5625,124.625)"/>
<path d="M0 0 C1.65 0 3.3 0 5 0 C5.33 1.65 5.66 3.3 6 5 C4.02 4.34 2.04 3.68 0 3 C0 2.01 0 1.02 0 0 Z " fill="#3BA560" transform="translate(220,124)"/>
<path d="M0 0 C0.99 0.33 1.98 0.66 3 1 C3.73046875 2.84765625 3.73046875 2.84765625 4.1875 5.0625 C4.34605469 5.79597656 4.50460938 6.52945313 4.66796875 7.28515625 C4.83232422 8.13400391 4.83232422 8.13400391 5 9 C4.34 9 3.68 9 3 9 C2.01 6.03 1.02 3.06 0 0 Z " fill="#7DA133" transform="translate(79,117)"/>
<path d="M0 0 C1.32 0.66 2.64 1.32 4 2 C4 2.99 4 3.98 4 5 C1.03 4.505 1.03 4.505 -2 4 C-1.34 2.68 -0.68 1.36 0 0 Z " fill="#329557" transform="translate(224,104)"/>
<path d="M0 0 C0 0.99 0 1.98 0 3 C-1.98 3 -3.96 3 -6 3 C-6 2.01 -6 1.02 -6 0 C-3.50907189 -1.24546405 -2.58919267 -0.7767578 0 0 Z " fill="#4A9D41" transform="translate(197,101)"/>
<path d="M0 0 C1.2077558 3.62326739 0.54311128 4.64146369 -1 8 C-1.66 8 -2.32 8 -3 8 C-3.33 8.66 -3.66 9.32 -4 10 C-4.25 7.25 -4.25 7.25 -4 4 C-2 1.625 -2 1.625 0 0 Z " fill="#228F9B" transform="translate(280,96)"/>
<path d="M0 0 C1.4540625 0.0309375 1.4540625 0.0309375 2.9375 0.0625 C1.6175 0.3925 0.2975 0.7225 -1.0625 1.0625 C-1.0625 1.7225 -1.0625 2.3825 -1.0625 3.0625 C-0.4025 3.3925 0.2575 3.7225 0.9375 4.0625 C-0.3825 4.3925 -1.7025 4.7225 -3.0625 5.0625 C-3.625 3.125 -3.625 3.125 -4.0625 1.0625 C-3.0625 0.0625 -3.0625 0.0625 0 0 Z " fill="#A1BC69" transform="translate(52.0625,77.9375)"/>
<path d="M0 0 C0.99 0.33 1.98 0.66 3 1 C2.67 3.64 2.34 6.28 2 9 C0.4375 7.3125 0.4375 7.3125 -1 5 C-0.6875 2.25 -0.6875 2.25 0 0 Z " fill="#ACAE1E" transform="translate(191,48)"/>
<path d="M0 0 C0.66 0.33 1.32 0.66 2 1 C1.46930939 4.82097239 0.50298434 7.06171403 -2 10 C-2.33 7.69 -2.66 5.38 -3 3 C-2.01 3 -1.02 3 0 3 C0 2.01 0 1.02 0 0 Z " fill="#D6AE34" transform="translate(183,32)"/>
<path d="M0 0 C0.66 0.33 1.32 0.66 2 1 C1.67 2.98 1.34 4.96 1 7 C-0.98 7.33 -2.96 7.66 -5 8 C-4.0409375 7.13375 -4.0409375 7.13375 -3.0625 6.25 C-1.01776132 4.01937599 -0.41794801 2.92563609 0 0 Z " fill="#5BA2A4" transform="translate(319,131)"/>
<path d="M0 0 C2.66735273 2.48952921 4.55746343 4.63408134 6 8 C4.125 7.6875 4.125 7.6875 2 7 C0 4 0 4 0 0 Z " fill="#4B9CA1" transform="translate(294,128)"/>
<path d="M0 0 C2 3 2 3 1.7578125 5.48046875 C1.54898437 6.37378906 1.34015625 7.26710938 1.125 8.1875 C0.92132813 9.08855469 0.71765625 9.98960938 0.5078125 10.91796875 C0.34023438 11.60503906 0.17265625 12.29210937 0 13 C-0.33 13 -0.66 13 -1 13 C-1.02686553 11.02090602 -1.04633375 9.04171029 -1.0625 7.0625 C-1.07410156 5.96035156 -1.08570313 4.85820313 -1.09765625 3.72265625 C-1 1 -1 1 0 0 Z " fill="#4D9797" transform="translate(294,102)"/>
<path d="M0 0 C0.99 0.33 1.98 0.66 3 1 C2.67 2.32 2.34 3.64 2 5 C0.68 4.67 -0.64 4.34 -2 4 C-1.34 2.68 -0.68 1.36 0 0 Z " fill="#2F9061" transform="translate(218,96)"/>
<path d="M0 0 C1.98 0.495 1.98 0.495 4 1 C2.515 4.465 2.515 4.465 1 8 C-0.42944945 5.64561267 -1.08661261 4.51967567 -0.625 1.75 C-0.41875 1.1725 -0.2125 0.595 0 0 Z " fill="#A6C673" transform="translate(105,89)"/>
<path d="M0 0 C1.32 0 2.64 0 4 0 C3.34 2.31 2.68 4.62 2 7 C1.34 6.67 0.68 6.34 0 6 C0 4.02 0 2.04 0 0 Z " fill="#74A123" transform="translate(65,80)"/>
<path d="M0 0 C1.4540625 0.0309375 1.4540625 0.0309375 2.9375 0.0625 C2.9375 1.0525 2.9375 2.0425 2.9375 3.0625 C0.2975 3.0625 -2.3425 3.0625 -5.0625 3.0625 C-3.56765464 0.07280928 -3.56765464 0.07280928 0 0 Z " fill="#A1B031" transform="translate(201.0625,66.9375)"/>
<path d="M0 0 C2 3 2 3 2 5 C2.99 5.33 3.98 5.66 5 6 C4.34 6.66 3.68 7.32 3 8 C2.01 7.67 1.02 7.34 0 7 C-1.33332095 4.3333581 -0.67102033 2.83319697 0 0 Z " fill="#077D82" transform="translate(300,105)"/>
<path d="M0 0 C1.32 0 2.64 0 4 0 C4 1.32 4 2.64 4 4 C2.35 3.67 0.7 3.34 -1 3 C-0.67 2.01 -0.34 1.02 0 0 Z " fill="#4F8F8B" transform="translate(265,99)"/>
<path d="M0 0 C0.33 1.32 0.66 2.64 1 4 C-1.97 3.67 -4.94 3.34 -8 3 C-5.08235 1.0549 -3.37462715 0.54723683 0 0 Z " fill="#7CB853" transform="translate(174,97)"/>
<path d="M0 0 C0.99 0.33 1.98 0.66 3 1 C2.67 3.97 2.34 6.94 2 10 C1.67 10 1.34 10 1 10 C0.67 6.7 0.34 3.4 0 0 Z " fill="#D3A841" transform="translate(182,42)"/>
<path d="M0 0 C0.66 0.33 1.32 0.66 2 1 C2 1.66 2 2.32 2 3 C1.34 3 0.68 3 0 3 C0 3.66 0 4.32 0 5 C-1.32 4.67 -2.64 4.34 -4 4 C-2.68 2.68 -1.36 1.36 0 0 Z " fill="#167677" transform="translate(243,137)"/>
<path d="M0 0 C4.455 0.99 4.455 0.99 9 2 C8.34 2.66 7.68 3.32 7 4 C4.69 3.34 2.38 2.68 0 2 C0 1.34 0 0.68 0 0 Z " fill="#61A474" transform="translate(224,140)"/>
<path d="M0 0 C1.32 0 2.64 0 4 0 C4 1.32 4 2.64 4 4 C2.35 4 0.7 4 -1 4 C-0.67 2.68 -0.34 1.36 0 0 Z " fill="#7BB141" transform="translate(169,137)"/>
<path d="M0 0 C0.66 0 1.32 0 2 0 C2.33 0.99 2.66 1.98 3 3 C-1.75 6 -1.75 6 -4 6 C-4 5.34 -4 4.68 -4 4 C-3.34 4 -2.68 4 -2 4 C-2 3.34 -2 2.68 -2 2 C-1.34 2 -0.68 2 0 2 C0 1.34 0 0.68 0 0 Z " fill="#479A56" transform="translate(216,132)"/>
<path d="M0 0 C0.66 0.33 1.32 0.66 2 1 C2 2.65 2 4.3 2 6 C0.68 5.67 -0.64 5.34 -2 5 C-2 4.01 -2 3.02 -2 2 C-1.34 2 -0.68 2 0 2 C0 1.34 0 0.68 0 0 Z " fill="#0E807D" transform="translate(278,83)"/>
</svg>
